<svg width="23" height="22" viewBox="0 0 23 22" fill="none" xmlns="http://www.w3.org/2000/svg">
<path d="M11.4893 0.806061C5.68078 0.806061 0.914062 5.57278 0.914062 11.3813C0.914062 17.1899 5.68078 21.9566 11.4893 21.9566C17.2979 21.9566 22.0646 17.1899 22.0646 11.3813C22.0646 5.57278 17.2979 0.806061 11.4893 0.806061ZM12.7286 17.5778H10.25V8.90275H12.7286V17.5778ZM11.4893 7.66346C10.8061 7.66346 10.25 7.10735 10.25 6.42417C10.25 5.74099 10.8061 5.18488 11.4893 5.18488C12.1725 5.18488 12.7286 5.74099 12.7286 6.42417C12.7286 7.10735 12.1725 7.66346 11.4893 7.66346Z" fill="white"/>
</svg>
