<svg width="283" height="213" viewBox="0 0 283 213" fill="none" xmlns="http://www.w3.org/2000/svg">
<path fill-rule="evenodd" clip-rule="evenodd" d="M80.5645 27.8157C79.6569 28.1255 79.0469 28.9784 79.0469 29.9374V104.492C79.0469 106.029 80.5586 107.11 82.0132 106.614L108.934 97.4227V50.1012C108.934 49.1422 109.544 48.2893 110.451 47.9795L161.994 30.3824V3.14952C161.994 1.6124 160.482 0.531147 159.028 1.02779L80.5645 27.8157Z" fill="#681281"/>
<path fill-rule="evenodd" clip-rule="evenodd" d="M121.334 57.5408C121.334 56.5818 121.944 55.729 122.852 55.4191L201.315 28.6312C202.769 28.1345 204.281 29.2158 204.281 30.7529V105.307C204.281 106.266 203.671 107.119 202.763 107.429L124.3 134.217C122.846 134.714 121.334 133.632 121.334 132.095V57.5408Z" fill="#B311A2"/>
<path d="M38.0515 174.361C36.5044 174.361 35.2582 174.877 34.3127 175.908C33.3673 176.897 32.8946 178.422 32.8946 180.485V196.407H23.9345V180.163C23.8915 178.358 23.3973 176.94 22.4519 175.908C21.5065 174.877 20.3462 174.361 18.971 174.361C17.4669 174.361 16.2207 174.856 15.2323 175.844C14.2439 176.789 13.7497 178.336 13.7497 180.485V196.407H4.78957V166.304H13.7497V170.687C14.4372 169.14 15.4901 167.937 16.9083 167.077C18.3694 166.175 19.9379 165.724 21.6139 165.724C26.384 165.724 29.6071 167.486 31.2831 171.009C33.4748 167.443 36.4829 165.659 40.3076 165.659C43.9604 165.659 46.7967 166.819 48.8165 169.14C50.8792 171.461 51.9106 174.856 51.9106 179.325V196.407H43.015V180.356C43.015 178.465 42.5423 177.004 41.5968 175.973C40.6514 174.899 39.4696 174.361 38.0515 174.361ZM66.3187 181.452C66.3187 183.644 66.9848 185.384 68.317 186.673C69.6921 187.963 71.3466 188.607 73.2805 188.607C75.2143 188.607 76.8473 187.941 78.1795 186.609C79.5547 185.277 80.2423 183.558 80.2423 181.452C80.2423 179.303 79.5547 177.563 78.1795 176.231C76.8473 174.856 75.2143 174.168 73.2805 174.168C71.3466 174.168 69.6921 174.856 68.317 176.231C66.9848 177.606 66.3187 179.346 66.3187 181.452ZM57.2297 166.304H66.1253V170.042C66.8559 168.667 68.0162 167.593 69.6062 166.819C71.2392 166.046 73.0226 165.659 74.9565 165.659C78.953 165.659 82.3695 167.12 85.2058 170.042C88.085 172.922 89.5247 176.66 89.5247 181.259C89.5247 185.943 88.085 189.746 85.2058 192.668C82.3695 195.591 78.953 197.052 74.9565 197.052C73.0226 197.052 71.2392 196.665 69.6062 195.891C68.0162 195.118 66.8559 194.065 66.1253 192.733V211.169H57.2297V166.304ZM137.402 166.304L126.83 196.407H119.353L113.422 177.262L107.75 196.407H100.272L89.3781 166.304H98.9184L104.269 184.224L109.554 166.304H117.225L122.511 184.224L127.861 166.304H137.402ZM152.928 188.156C154.862 188.156 156.473 187.533 157.762 186.287C159.094 184.997 159.761 183.321 159.761 181.259C159.761 179.282 159.094 177.649 157.762 176.36C156.43 175.07 154.819 174.426 152.928 174.426C151.037 174.426 149.425 175.07 148.093 176.36C146.804 177.649 146.159 179.282 146.159 181.259C146.159 183.321 146.804 184.997 148.093 186.287C149.425 187.533 151.037 188.156 152.928 188.156ZM164.015 192.604C161.007 195.483 157.311 196.923 152.928 196.923C148.544 196.923 144.849 195.483 141.84 192.604C138.832 189.682 137.328 185.9 137.328 181.259C137.328 176.617 138.832 172.857 141.84 169.978C144.849 167.099 148.544 165.659 152.928 165.659C157.311 165.659 161.007 167.099 164.015 169.978C167.066 172.857 168.592 176.617 168.592 181.259C168.592 185.9 167.066 189.682 164.015 192.604ZM181.396 185.9V196.407H172.436V166.304H181.396V173.588C182.127 170.966 183.287 168.99 184.877 167.657C186.51 166.325 188.186 165.659 189.905 165.659C191.882 165.659 193.601 166.024 195.062 166.755L193.451 174.813C192.204 174.211 190.679 173.91 188.874 173.91C183.889 173.91 181.396 177.907 181.396 185.9ZM206.011 184.482V196.407H197.115V149.931H206.011V174.555L213.166 166.304H224.576L212.07 179.583L227.09 196.407H216.067L206.011 184.482ZM247.659 186.48L254.169 190.928C251.419 195.01 246.842 197.052 240.439 197.052C236.013 197.052 232.274 195.591 229.223 192.668C226.215 189.703 224.711 185.9 224.711 181.259C224.711 176.617 226.215 172.857 229.223 169.978C232.274 167.099 236.013 165.659 240.439 165.659C244.822 165.659 248.475 167.142 251.397 170.107C254.363 173.029 255.845 176.832 255.845 181.517C255.845 182.333 255.802 183.257 255.716 184.288H233.671C233.886 185.921 234.724 187.168 236.185 188.027C237.689 188.887 239.322 189.316 241.084 189.316C244.006 189.316 246.198 188.371 247.659 186.48ZM233.8 178.68H246.821C246.606 177.004 245.854 175.737 244.565 174.877C243.318 173.975 241.965 173.523 240.504 173.523C239.042 173.523 237.646 173.953 236.314 174.813C234.981 175.672 234.143 176.961 233.8 178.68ZM268.338 185.9V196.407H259.378V166.304H268.338V173.588C269.069 170.966 270.229 168.99 271.819 167.657C273.452 166.325 275.128 165.659 276.847 165.659C278.824 165.659 280.543 166.024 282.004 166.755L280.392 174.813C279.146 174.211 277.621 173.91 275.816 173.91C270.831 173.91 268.338 177.907 268.338 185.9Z" fill="#1A1A1A"/>
</svg>
