<svg width="628" height="113" viewBox="0 0 628 113" fill="none" xmlns="http://www.w3.org/2000/svg">
<rect x="282" width="346" height="113" rx="8" fill="white"/>
<path d="M384.654 38.1815L369.266 82H358.381L349.749 54.1326L341.492 82H330.608L314.751 38.1815H328.637L336.425 64.2662L344.119 38.1815H355.285L362.979 64.2662L370.767 38.1815H384.654ZM407.254 69.9898C410.069 69.9898 412.414 69.0828 414.291 67.2687C416.23 65.3921 417.2 62.9526 417.2 59.95C417.2 57.0726 416.23 54.6955 414.291 52.8189C412.352 50.9423 410.006 50.004 407.254 50.004C404.501 50.004 402.156 50.9423 400.216 52.8189C398.34 54.6955 397.401 57.0726 397.401 59.95C397.401 62.9526 398.34 65.3921 400.216 67.2687C402.156 69.0828 404.501 69.9898 407.254 69.9898ZM423.392 76.464C419.014 80.6551 413.634 82.7506 407.254 82.7506C400.873 82.7506 395.494 80.6551 391.115 76.464C386.736 72.2104 384.547 66.7057 384.547 59.95C384.547 53.1943 386.736 47.7208 391.115 43.5298C395.494 39.3387 400.873 37.2432 407.254 37.2432C413.634 37.2432 419.014 39.3387 423.392 43.5298C427.834 47.7208 430.054 53.1943 430.054 59.95C430.054 66.7057 427.834 72.2104 423.392 76.464ZM448.693 66.7057V82H435.65V38.1815H448.693V48.7843C449.756 44.9685 451.445 42.0911 453.759 40.1519C456.136 38.2128 458.576 37.2432 461.078 37.2432C463.956 37.2432 466.458 37.7749 468.585 38.8383L466.239 50.567C464.425 49.6913 462.204 49.2534 459.577 49.2534C452.321 49.2534 448.693 55.0709 448.693 66.7057ZM484.522 64.6415V82H471.573V14.3487H484.522V50.1917L494.937 38.1815H511.545L493.342 57.5104L515.204 82H499.159L484.522 64.6415ZM545.145 67.5502L554.621 74.0245C550.618 79.967 543.956 82.9383 534.636 82.9383C528.193 82.9383 522.751 80.8115 518.309 76.5579C513.931 72.2417 511.741 66.7057 511.741 59.95C511.741 53.1943 513.931 47.7208 518.309 43.5298C522.751 39.3387 528.193 37.2432 534.636 37.2432C541.016 37.2432 546.333 39.4013 550.587 43.7174C554.903 47.9711 557.061 53.507 557.061 60.3253C557.061 61.5138 556.998 62.8587 556.873 64.36H524.783C525.096 66.737 526.316 68.5511 528.443 69.8021C530.632 71.0532 533.009 71.6787 535.574 71.6787C539.828 71.6787 543.018 70.3026 545.145 67.5502ZM524.971 56.1968H543.925C543.612 53.7572 542.517 51.9119 540.641 50.6608C538.827 49.3472 536.856 48.6904 534.729 48.6904C532.603 48.6904 530.57 49.316 528.631 50.567C526.691 51.8181 525.472 53.6947 524.971 56.1968ZM575.246 66.7057V82H562.203V38.1815H575.246V48.7843C576.309 44.9685 577.998 42.0911 580.312 40.1519C582.689 38.2128 585.129 37.2432 587.631 37.2432C590.509 37.2432 593.011 37.7749 595.137 38.8383L592.792 50.567C590.978 49.6913 588.757 49.2534 586.13 49.2534C578.874 49.2534 575.246 55.0709 575.246 66.7057Z" fill="url(#paint0_linear_553_11203)"/>
<path d="M17.1632 41.9904L11.0075 43.2425C10.2423 43.2425 9.66851 43.1381 9.28594 42.9295C8.90338 42.7208 8.7121 42.2165 8.7121 41.4166C8.7121 40.1646 10.2771 38.1822 13.4072 35.4695C16.5372 32.722 20.9367 30.2701 26.6056 28.1139C32.2744 25.9228 37.2825 24.8273 41.6298 24.8273C46.0119 24.8273 49.0028 25.7316 50.6026 27.54C52.2024 29.3137 53.0023 32.2351 53.0023 36.3042C53.0023 36.8259 52.9328 37.7127 52.7937 38.9647C65.4182 28.8095 77.0168 23.7318 87.5894 23.7318C92.5627 23.7318 96.3362 24.8621 98.9098 27.1227C101.483 29.3833 102.77 32.5829 102.77 36.7215V37.191C114.282 28.2182 124.576 23.7318 133.653 23.7318C138.801 23.7318 142.852 24.9491 145.808 27.3835C148.765 29.7832 150.243 33.035 150.243 37.1389C150.243 41.2079 149.338 45.8856 147.53 51.1719C145.756 56.4582 143.809 61.1881 141.687 65.3615C135.983 76.5949 133.132 84.0375 133.132 87.6892C133.132 90.0194 133.827 91.8626 135.218 93.219C136.61 94.5405 138.07 95.3404 139.6 95.6187C141.131 95.8621 142.122 96.0534 142.574 96.1925C143.061 96.2969 143.6 96.4707 144.191 96.7142C145.304 97.1315 145.861 97.8445 145.861 98.8531C145.861 101.322 143.165 103.479 137.775 105.322C132.419 107.165 125.811 108.087 117.951 108.087C107.517 108.087 102.301 104.209 102.301 96.4534C102.301 93.0103 103.17 88.7152 104.909 83.568C106.648 78.386 108.561 73.5866 110.647 69.1697C116.177 57.3799 118.942 49.5026 118.942 45.5378C118.942 44.0772 118.507 42.8947 117.638 41.9904C116.803 41.0862 115.482 40.6341 113.673 40.6341C110.508 40.6341 106.491 41.8861 101.622 44.3902C100.266 49.6765 97.6404 56.9625 93.7452 66.2484C89.85 75.4994 87.0677 82.8898 85.3984 88.4196C83.729 93.9145 82.79 98.6444 82.5813 102.609C82.5118 103.757 82.1814 104.713 81.5901 105.478C81.0337 106.243 80.3033 106.626 79.3991 106.626L58.2191 106.939C54.4978 106.939 52.2198 106.313 51.3851 105.061C51.0026 104.47 50.8113 103.6 50.8113 102.453C50.8113 101.305 51.2113 99.0617 52.0112 95.723C52.8111 92.3843 54.3587 87.7414 56.6541 81.7943C58.9842 75.8124 61.1926 70.613 63.2793 66.1962C68.4961 55.0323 71.1045 48.0767 71.1045 45.3292C71.1045 42.1643 69.1917 40.5819 65.366 40.5819C61.5404 40.5819 56.9497 42.0774 51.5938 45.0683C50.4114 49.5547 48.2029 55.7453 44.9685 63.64C41.7689 71.4999 38.9693 78.6642 36.5696 85.133C34.2046 91.6018 33.0222 96.4534 33.0222 99.6877L33.1787 103.131C33.1787 104.209 32.5874 105.061 31.405 105.687C30.2225 106.313 28.9879 106.626 27.7011 106.626L8.34693 106.939C4.48653 106.939 2.13899 106.278 1.30431 104.957C0.92175 104.296 0.730469 103.287 0.730469 101.931C0.730469 100.54 1.02608 98.5574 1.61732 95.9838C2.20855 93.4103 4.08658 88.3848 7.25141 80.9074C10.451 73.3953 13.355 66.4222 15.9634 59.9882C18.6065 53.5543 19.9281 49.2939 19.9281 47.2072C19.9281 45.1205 19.7021 43.7294 19.2499 43.0338C18.7978 42.3382 18.1023 41.9904 17.1632 41.9904Z" fill="white"/>
<path d="M209.613 48.6679C207.492 52.0762 204.014 61.4837 199.18 76.8905C200.328 76.9601 202.032 76.9949 204.292 76.9949C211.248 76.9949 217.108 74.6125 221.873 69.8479C226.672 65.0833 229.072 58.8927 229.072 51.2763C229.072 40.1472 222.377 34.5827 208.987 34.5827C203.701 34.5827 198.589 34.9652 193.65 35.7303C188.746 36.4955 184.869 37.3301 182.017 38.2344C179.165 39.1386 176.539 39.9733 174.14 40.7384C171.74 41.5036 170.157 41.8861 169.392 41.8861C167.653 41.8861 166.784 41.2601 166.784 40.0081C166.784 38.7561 167.966 37.4867 170.331 36.1999C172.731 34.8783 175.461 33.6089 178.522 32.3916C181.582 31.1396 185.373 29.8354 189.894 28.4791C200.154 25.349 211.265 23.784 223.229 23.784C239.019 23.784 249.765 27.2966 255.469 34.3218C258.564 38.1127 260.112 42.686 260.112 48.0419C260.112 58.1972 255.886 66.5787 247.435 73.1866C240.236 78.8207 230.88 82.4029 219.369 83.9331C215.995 84.3853 212.135 84.6113 207.788 84.6113C203.475 84.6113 199.893 84.3157 197.041 83.7245C195.58 88.4196 194.433 92.0017 193.598 94.471C192.798 96.9402 191.894 98.9226 190.885 100.418C189.877 101.914 188.799 103.096 187.651 103.965C186.538 104.835 185.112 105.496 183.373 105.948C180.626 106.678 176.957 107.043 172.366 107.043C167.81 107.043 163.48 106.539 159.376 105.531C155.272 104.522 152.02 103.287 149.621 101.827C147.186 100.366 145.969 98.94 145.969 97.5489C145.969 96.749 146.317 96.1056 147.012 95.6187C147.708 95.1318 148.508 94.8883 149.412 94.8883C152.612 94.8883 154.977 94.384 156.507 93.3755C158.072 92.3321 159.567 90.4193 160.993 87.637C162.454 84.8548 163.897 81.6204 165.323 77.9339C166.784 74.2126 168.14 70.7695 169.392 67.6047C170.644 64.4051 172.07 61.1533 173.67 57.8494C177.183 50.6155 181.339 45.8682 186.138 43.6076C188.468 42.4947 191.511 41.6427 195.267 41.0514C199.023 40.4254 201.962 40.1124 204.084 40.1124C206.24 40.1124 207.631 40.1472 208.257 40.2168C208.918 40.2515 209.579 40.3559 210.239 40.5298C211.561 40.8775 212.222 41.6079 212.222 42.7208C212.222 43.4859 212.065 44.1989 211.752 44.8597C211.474 45.4857 210.761 46.7551 209.613 48.6679Z" fill="white"/>
<defs>
<linearGradient id="paint0_linear_553_11203" x1="314" y1="22" x2="561.204" y2="196.5" gradientUnits="userSpaceOnUse">
<stop stop-color="#B311A2"/>
<stop offset="1" stop-color="#681281"/>
<stop offset="1" stop-color="#681281"/>
</linearGradient>
</defs>
</svg>
