<?xml version="1.0" encoding="utf-8"?><svg viewBox="0 0 502.66 512" xmlns="http://www.w3.org/2000/svg" xmlns:xlink="http://www.w3.org/1999/xlink"><style>:root>svg{display:none}:root>svg:target{display:block}</style><svg viewBox="0 0 24 24" id="arrow-up" xmlns="http://www.w3.org/2000/svg"><path d="M12 19V5m-7 7l7-7 7 7"/></svg><svg viewBox="0 0 22 23" id="attach-file" xmlns="http://www.w3.org/2000/svg"><path d="M20.438 11.05l-9.19 9.19a6.003 6.003 0 01-8.49-8.49l9.19-9.19a4.002 4.002 0 015.66 5.66l-9.2 9.19a2.001 2.001 0 11-2.83-2.83l8.49-8.48"/></svg><svg viewBox="0 0 16 15" id="card-customer" xmlns="http://www.w3.org/2000/svg"><path d="M7.98.167l7.608 5.528-2.906 8.944H3.277L.371 5.695 7.979.167z"/></svg><svg viewBox="0 0 24 25" id="chat" xmlns="http://www.w3.org/2000/svg"><path fill-rule="evenodd" clip-rule="evenodd" d="M5.25 6.045a4.35 4.35 0 014.35-4.35H17a5.75 5.75 0 015.75 5.75v2.158a3.592 3.592 0 01-3.592 3.592.914.914 0 01-.912-.869 6.807 6.807 0 00-.252-1.487c-.19-.66-.509-1.347-1.024-1.863-1.468-1.468-3.709-1.78-6.101-1.78H6.4a1.15 1.15 0 01-1.15-1.15zm1.521-.35h4.098c2.417 0 5.228.287 7.161 2.22.76.76 1.175 1.71 1.405 2.508.13.45.206.868.251 1.205a2.093 2.093 0 001.564-2.025V7.445A4.25 4.25 0 0017 3.195H9.6a2.85 2.85 0 00-2.829 2.5z"/><path fill-rule="evenodd" clip-rule="evenodd" d="M1.25 12.517a6.821 6.821 0 016.821-6.822h4.858a6.821 6.821 0 010 13.643h-.904L8.664 22.7c-.897.897-2.404.043-2.097-1.187l.549-2.193a6.372 6.372 0 01-5.866-6.352v-.45zm6.821-5.322a5.321 5.321 0 00-5.321 5.322v.45a4.871 4.871 0 004.871 4.871c.717 0 1.243.674 1.069 1.369L8.24 21l2.813-2.812c.224-.224.527-.35.844-.35h1.03a5.321 5.321 0 000-10.643H8.072z"/></svg><svg viewBox="0 0 24 24" id="chat-smile" xmlns="http://www.w3.org/2000/svg"><path d="M12 22c5.523 0 10-4.477 10-10S17.523 2 12 2 2 6.477 2 12s4.477 10 10 10z"/><path d="M8 14s1.5 2 4 2 4-2 4-2M9 9h.01M15 9h.01"/></svg><svg viewBox="0 0 8 14" id="chevron-left" xmlns="http://www.w3.org/2000/svg"><path d="M7 13L1 7l6-6"/></svg><svg viewBox="0 0 8 14" id="chevron-right" xmlns="http://www.w3.org/2000/svg"><path d="M1 13l6-6-6-6"/></svg><svg viewBox="0 0 320 512" id="close" xmlns="http://www.w3.org/2000/svg"><path d="M310.6 361.4c12.5 12.5 12.5 32.75 0 45.25-6.2 6.25-14.4 9.35-22.6 9.35s-16.38-3.125-22.62-9.375L160 301.3 54.63 406.6C48.38 412.9 40.19 416 32 416s-16.37-3.1-22.625-9.4c-12.5-12.5-12.5-32.75 0-45.25l105.4-105.4L9.375 150.6c-12.5-12.5-12.5-32.75 0-45.25s32.75-12.5 45.25 0L160 210.8l105.4-105.4c12.5-12.5 32.75-12.5 45.25 0s12.5 32.75 0 45.25l-105.4 105.4L310.6 361.4z"/></svg><svg viewBox="0 0 25 24" id="download" xmlns="http://www.w3.org/2000/svg"><path d="M21.629 15v4a2 2 0 01-2 2h-14a2 2 0 01-2-2v-4m4-5l5 5 5-5m-5 5V3"/></svg><svg viewBox="0 0 25 25" id="heart" xmlns="http://www.w3.org/2000/svg"><g clip-path="url(#aja)"><path d="M21.721 4.725a5.5 5.5 0 00-7.78 0l-1.06 1.06-1.06-1.06a5.501 5.501 0 00-7.78 7.78l1.06 1.06 7.78 7.78 7.78-7.78 1.06-1.06a5.5 5.5 0 000-7.78z"/></g><defs><clipPath id="aja"><path transform="translate(.88 .115)" d="M0 0h24v24H0z"/></clipPath></defs></svg><svg viewBox="0 0 22 13" id="hide-password" xmlns="http://www.w3.org/2000/svg"><path d="M8.342 12.782l-1.931-.518.787-2.939A10.988 10.988 0 013.96 7.453L1.808 9.607.393 8.192 2.547 6.04A10.957 10.957 0 01.176.97L2.144.61C2.903 4.812 6.579 8 11 8c4.42 0 8.097-3.188 8.856-7.39l1.968.358a10.958 10.958 0 01-2.37 5.071l2.153 2.153-1.415 1.415-2.153-2.154a10.988 10.988 0 01-3.237 1.872l.787 2.94-1.931.517-.788-2.94a11.074 11.074 0 01-3.74 0l-.788 2.94z"/></svg><svg viewBox="0 0 502.664 502.664" id="icon" xmlns="http://www.w3.org/2000/svg"><path d="M153.821 358.226L0 274.337v-46.463l153.821-83.414v54.574L46.636 250.523l107.185 53.431v54.272zm26.273 29.358L282.103 115.08h32.227L212.084 387.584h-31.99zm168.749-29.358v-54.272l107.164-52.999-107.164-52.59v-53.927l153.821 83.522v46.183l-153.821 84.083z"/></svg><svg viewBox="0 0 18 15" id="lines-btn" xmlns="http://www.w3.org/2000/svg"><path d="M.618 9.234h4v-4h-4v4zm0 5h4v-4h-4v4zm0-10h4v-4h-4v4zm5 5h12v-4h-12v4zm0 5h12v-4h-12v4zm0-14v4h12v-4h-12z"/></svg><svg viewBox="0 0 25 25" id="list-add" xmlns="http://www.w3.org/2000/svg"><path d="M3.137 17.115h7m5-1h6m-3 3v-6m-15-1h11m-11-5h11"/></svg><svg viewBox="0 0 24 25" id="mute" xmlns="http://www.w3.org/2000/svg"><g clip-path="url(#aoa)" stroke-width="2" stroke-linecap="round" stroke-linejoin="round"><path d="M13.73 21.408a2 2 0 01-3.46 0m8.358-8a17.888 17.888 0 01-.63-5M6.26 6.668A5.86 5.86 0 006 8.408c0 7-3 9-3 9h14m1.002-9a6 6 0 00-9.33-5M1 1.408l22 22"/></g><defs><clipPath id="aoa"><path transform="translate(0 .408)" d="M0 0h24v24H0z"/></clipPath></defs></svg><svg viewBox="0 0 24 25" id="notification" xmlns="http://www.w3.org/2000/svg"><path fill-rule="evenodd" clip-rule="evenodd" d="M16.297 5.7c1.227.692 2.167 1.814 2.167 3.375v5.247l2.625 2.963c1 1.13.198 2.91-1.31 2.91H4.22c-1.508 0-2.31-1.78-1.31-2.91l2.625-2.963V9.075c0-1.561.94-2.683 2.167-3.375C8.916 5.015 10.48 4.695 12 4.695s3.084.32 4.297 1.005zM8.44 7.006c-.916.517-1.404 1.21-1.404 2.069v5.342c0 .306-.113.6-.315.828L4.034 18.28a.25.25 0 00.187.415H19.78a.25.25 0 00.187-.415l-2.688-3.035a1.249 1.249 0 01-.314-.828V9.075c0-.858-.488-1.552-1.404-2.07-.93-.524-2.222-.81-3.56-.81s-2.63.286-3.56.81z"/><path d="M14 3.945a2 2 0 11-4 0 2 2 0 014 0z"/><path fill-rule="evenodd" clip-rule="evenodd" d="M7.75 18.695h8.5v.75c0 1.036-.481 2-1.288 2.691-.802.688-1.87 1.06-2.963 1.06-1.088 0-2.181-.369-2.987-1.06-.819-.701-1.262-1.67-1.262-2.69v-.75zm1.648 1.5c.121.295.318.569.59.802.506.434 1.243.698 2.011.698.764 0 1.477-.26 1.987-.698a2.23 2.23 0 00.605-.802H9.398zM16.857 3.56a.75.75 0 011.029-.258c2.85 1.71 3.364 4.566 3.364 7.143a.75.75 0 01-1.5 0c0-2.422-.485-4.566-2.636-5.856a.75.75 0 01-.257-1.03zm-9.714 0a.75.75 0 00-1.029-.258c-1.37.823-2.239 1.815-2.745 3.045-.495 1.202-.62 2.571-.62 4.098a.75.75 0 001.5 0c0-1.472.127-2.603.507-3.526.368-.895 1-1.653 2.13-2.33a.75.75 0 00.257-1.03z"/></svg><svg viewBox="0 0 32 33" id="ok" xmlns="http://www.w3.org/2000/svg"><path d="M0 16.512c0-8.837 7.163-16 16-16s16 7.163 16 16c0 8.836-7.163 16-16 16s-16-7.164-16-16z"/><path fill-rule="evenodd" clip-rule="evenodd" d="M20.876 11.982a4.854 4.854 0 01-4.845 4.845c-2.698 0-4.874-2.176-4.874-4.845 0-2.67 2.176-4.845 4.874-4.845a4.854 4.854 0 014.845 4.845zm-2.843 0c0-1.102-.9-2.002-2.002-2.002-1.131 0-2.031.9-2.002 2.002 0 1.103.9 2.002 2.002 2.002 1.103 0 2.002-.9 2.002-2.002z"/><path d="M20.79 19.642a9.17 9.17 0 01-2.815 1.16l2.756 2.67c.551.55.551 1.45 0 2.001a1.418 1.418 0 01-2.002 0l-2.669-2.669-2.67 2.67c-.29.26-.638.405-1.015.405-.377 0-.725-.116-1.015-.406a1.418 1.418 0 010-2.002l2.698-2.698a9.166 9.166 0 01-2.814-1.16c-.668-.407-.87-1.277-.493-1.944a1.445 1.445 0 011.973-.436 6.16 6.16 0 006.527 0 1.413 1.413 0 011.973.436 1.413 1.413 0 01-.435 1.973z"/></svg><svg viewBox="0 0 11 20" id="page-left" xmlns="http://www.w3.org/2000/svg"><path fill-rule="evenodd" clip-rule="evenodd" d="M10.53 19.53a.75.75 0 01-1.06 0l-9-9a.75.75 0 010-1.06l9-9a.75.75 0 111.06 1.06L2.06 10l8.47 8.47a.75.75 0 010 1.06z"/></svg><svg viewBox="0 0 11 20" id="page-right" xmlns="http://www.w3.org/2000/svg"><path fill-rule="evenodd" clip-rule="evenodd" d="M.47.47a.75.75 0 011.06 0l9 9a.75.75 0 010 1.06l-9 9a.75.75 0 01-1.06-1.06L8.94 10 .47 1.53a.75.75 0 010-1.06z"/></svg><svg viewBox="0 0 16 16" id="pencil" xmlns="http://www.w3.org/2000/svg"><g clip-path="url(#ata)"><path d="M11.332 2a1.886 1.886 0 012.667 2.667l-9 9-3.667 1 1-3.667 4.5-4.5 4.5-4.5z"/></g><defs><clipPath id="ata"><path d="M0 0h16v16H0z"/></clipPath></defs></svg><svg viewBox="0 0 16 16" id="plus" xmlns="http://www.w3.org/2000/svg"><path d="M8 3.333v9.334M3.332 8h9.333"/></svg><svg viewBox="0 0 24 24" id="plus-round" xmlns="http://www.w3.org/2000/svg"><path d="M12 22c5.523 0 10-4.477 10-10S17.523 2 12 2 2 6.477 2 12s4.477 10 10 10zm0-14v8m-4-4h8"/></svg><svg viewBox="0 0 14 14" id="rating-star" xmlns="http://www.w3.org/2000/svg"><path fill-rule="evenodd" clip-rule="evenodd" d="M2.843 12.93a1 1 0 001.333.422l3.004-1.571a.047.047 0 01.027-.007l2.984 1.558a.982.982 0 00.627.106.997.997 0 00.825-1.129l-.581-3.307-.005-.006c0-.003.005-.007.005-.007l2.423-2.344a.986.986 0 00.105-1.3 1.015 1.015 0 00-.66-.383L9.588 4.48c-.005 0-.012-.006-.019-.013L8.077 1.47a1 1 0 00-1.79 0l-1.49 2.988c0 .014-.014.02-.027.02l-3.333.482a1.087 1.087 0 00-.548.264c-.195.19-.305.453-.305.726.001.26.105.508.29.689l2.443 2.35a.027.027 0 01.008.02l-.589 3.293a.985.985 0 00.107.628zM7.167 1.884l.006-.005h.013l.006.006c.006 0 .01.001.015.005.004.004.006.01.006.016l1.492 2.983a.997.997 0 00.745.548l3.341.485c.006 0 .012.002.018.004h.009l.006.006-.006.015-2.423 2.35a.957.957 0 00-.284.883l.581 3.288-.013.013h-.014a.008.008 0 01-.008 0 .05.05 0 01-.019-.007h-.006l-2.97-1.551a.995.995 0 00-.938.006l-2.99 1.568h-.01a.03.03 0 01-.03-.022v-.014l.581-3.287a.999.999 0 00-.284-.878L1.55 5.953c0-.01 0-.019.006-.027l.04-.014 3.32-.475a1 1 0 00.746-.548l1.492-2.99a.035.035 0 01.014-.015z"/></svg><svg viewBox="0 0 14 13" id="rating-star-colored" xmlns="http://www.w3.org/2000/svg"><path d="M12.83 4.728l-3.928-.57L7.146.597a.497.497 0 00-.888 0l-1.756 3.56-3.928.57a.494.494 0 00-.274.845l2.842 2.77-.671 3.914a.494.494 0 00.718.52l3.513-1.846 3.514 1.847a.494.494 0 00.718-.521l-.672-3.913 2.842-2.771a.494.494 0 00-.273-.845z"/></svg><svg viewBox="0 0 91 16" id="rating-stars-0" xmlns="http://www.w3.org/2000/svg"><path fill-rule="evenodd" clip-rule="evenodd" d="M4.11 13.765a1 1 0 001.333.423l3.004-1.571a.046.046 0 01.027-.007l2.984 1.558a.984.984 0 00.627.106.997.997 0 00.825-1.13l-.581-3.306-.005-.006c0-.003.005-.008.005-.008l2.423-2.343a.986.986 0 00.105-1.3 1.015 1.015 0 00-.66-.383l-3.341-.482c-.006 0-.013-.007-.02-.013L9.344 2.306a1 1 0 00-1.789 0l-1.49 2.988c0 .014-.014.02-.028.02l-3.333.482a1.087 1.087 0 00-.548.264c-.195.19-.304.453-.304.726 0 .26.105.508.29.688l2.442 2.35a.027.027 0 01.008.02l-.588 3.294a.985.985 0 00.106.627zM8.433 2.72l.007-.005h.013l.006.006c.005 0 .01.001.015.005.004.004.006.01.006.015l1.492 2.984a.996.996 0 00.745.547l3.341.486c.006 0 .012.002.018.004h.009l.006.006-.006.015-2.423 2.349a.957.957 0 00-.284.884l.581 3.288-.013.012h-.014a.008.008 0 01-.008 0 .052.052 0 01-.019-.006h-.006l-2.97-1.551a.996.996 0 00-.938.006L5 13.333h-.01a.03.03 0 01-.03-.022v-.014l.581-3.287a.999.999 0 00-.284-.878L2.816 6.789c0-.01 0-.019.006-.027l.04-.014 3.32-.476a1 1 0 00.746-.547l1.492-2.99a.035.035 0 01.013-.015zm14.16 11.045a1 1 0 001.333.423l3.005-1.571a.046.046 0 01.026-.007l2.984 1.558a.984.984 0 00.627.106.997.997 0 00.825-1.13l-.58-3.306-.005-.006c0-.003.004-.008.004-.008l2.423-2.343a.986.986 0 00.105-1.3 1.015 1.015 0 00-.66-.383l-3.341-.482c-.006 0-.013-.007-.02-.013l-1.492-2.997a1 1 0 00-1.789 0l-1.49 2.988c0 .014-.014.02-.027.02l-3.334.482a1.087 1.087 0 00-.548.264c-.195.19-.304.453-.304.726 0 .26.105.508.29.688l2.443 2.35a.027.027 0 01.007.02l-.588 3.294a.985.985 0 00.106.627zM26.917 2.72l.006-.005h.013l.006.006c.006 0 .01.001.015.005.005.004.006.01.006.015l1.492 2.984a.996.996 0 00.745.547l3.341.486c.006 0 .012.002.018.004h.009l.007.006-.007.015-2.423 2.349a.957.957 0 00-.284.884l.581 3.288-.013.012h-.014a.008.008 0 01-.008 0 .051.051 0 01-.019-.006h-.006l-2.97-1.551a.996.996 0 00-.938.006l-2.99 1.568h-.01a.03.03 0 01-.03-.022v-.014l.581-3.287a.999.999 0 00-.284-.878L21.3 6.789c0-.01 0-.019.006-.027l.04-.014 3.32-.476a1 1 0 00.746-.547l1.492-2.99a.035.035 0 01.014-.015zm14.159 11.045a1 1 0 001.333.423l3.005-1.571a.046.046 0 01.026-.007l2.985 1.558a.984.984 0 00.626.106.997.997 0 00.825-1.13l-.58-3.306-.005-.006c0-.003.005-.008.005-.008l2.422-2.343a.986.986 0 00.106-1.3 1.015 1.015 0 00-.66-.383l-3.342-.482c-.006 0-.012-.007-.019-.013L46.31 2.306a1 1 0 00-1.788 0L43.03 5.294c0 .014-.014.02-.027.02l-3.334.482a1.087 1.087 0 00-.548.264c-.194.19-.304.453-.304.726 0 .26.105.508.29.688l2.443 2.35a.027.027 0 01.007.02l-.588 3.294a.985.985 0 00.106.627zM45.4 2.72l.007-.005h.012l.006.006c.006 0 .011.001.016.005.004.004.006.01.005.015l1.492 2.984a.996.996 0 00.745.547l3.342.486c.006 0 .012.002.017.004h.01l.006.006-.007.015-2.422 2.349a.957.957 0 00-.285.884l.582 3.288-.014.012H48.9a.008.008 0 01-.008 0 .051.051 0 01-.02-.006h-.005l-2.97-1.551a.996.996 0 00-.939.006l-2.99 1.568h-.01a.03.03 0 01-.03-.022v-.014l.582-3.287a.999.999 0 00-.284-.878l-2.443-2.343c0-.01.001-.019.006-.027l.04-.014 3.321-.476a1 1 0 00.745-.547l1.493-2.99a.035.035 0 01.013-.015zm14.16 11.045a1.001 1.001 0 001.332.423l3.005-1.571a.046.046 0 01.027-.007l2.984 1.558a.984.984 0 00.626.106.997.997 0 00.825-1.13l-.58-3.306-.005-.006c0-.003.005-.008.005-.008L70.2 7.482a.986.986 0 00.106-1.3 1.015 1.015 0 00-.66-.383l-3.342-.482c-.006 0-.012-.007-.019-.013l-1.492-2.997a1 1 0 00-1.79 0l-1.49 2.988c0 .014-.014.02-.027.02l-3.334.482a1.087 1.087 0 00-.547.264c-.195.19-.305.453-.305.726 0 .26.105.508.29.688l2.443 2.35a.028.028 0 01.007.02l-.588 3.294a.986.986 0 00.106.627zM63.883 2.72l.007-.005h.012l.006.006c.006 0 .011.001.016.005.004.004.006.01.005.015l1.492 2.984a.997.997 0 00.745.547l3.342.486c.006 0 .012.002.017.004h.01l.006.006-.007.015-2.422 2.349a.957.957 0 00-.285.884l.582 3.288-.013.012h-.014a.008.008 0 01-.008 0 .052.052 0 01-.02-.006h-.005l-2.97-1.551a.996.996 0 00-.939.006l-2.99 1.568h-.01a.03.03 0 01-.029-.022v-.014l.58-3.287a.999.999 0 00-.283-.878l-2.442-2.343c-.001-.01 0-.019.006-.027l.04-.014 3.32-.476a1 1 0 00.745-.547l1.493-2.99a.035.035 0 01.013-.015z"/><path d="M88.514 5.564l-3.928-.57-1.756-3.56a.497.497 0 00-.888 0l-1.756 3.56-3.928.57a.495.495 0 00-.274.845l2.842 2.77-.672 3.913a.494.494 0 00.718.522l3.514-1.848 3.513 1.848a.494.494 0 00.718-.521l-.671-3.913 2.842-2.771a.494.494 0 00-.274-.845zM84.75 8.79l.558 3.253-2.922-1.534-2.923 1.536.559-3.254-2.364-2.305 3.267-.475 1.46-2.96 1.461 2.96 3.268.475L84.75 8.79z"/></svg><svg viewBox="0 0 91 17" id="rating-stars-1" xmlns="http://www.w3.org/2000/svg"><path d="M14.581 6.092l-3.928-.57-1.756-3.56a.497.497 0 00-.888 0l-1.756 3.56-3.929.57a.494.494 0 00-.273.845l2.842 2.771-.672 3.913a.494.494 0 00.718.521l3.514-1.847 3.513 1.847a.494.494 0 00.718-.521l-.671-3.913 2.842-2.771a.494.494 0 00-.274-.845z"/><path fill-rule="evenodd" clip-rule="evenodd" d="M22.593 14.294a1 1 0 001.333.422l3.005-1.57a.047.047 0 01.026-.008l2.984 1.558a.982.982 0 00.627.106.997.997 0 00.825-1.129l-.58-3.307-.005-.006c0-.003.004-.007.004-.007l2.423-2.344a.986.986 0 00.105-1.3 1.015 1.015 0 00-.66-.383l-3.341-.482c-.006 0-.013-.006-.02-.013l-1.492-2.997a1 1 0 00-1.789 0l-1.49 2.988c0 .014-.014.02-.027.02l-3.334.482a1.087 1.087 0 00-.548.264c-.195.19-.304.453-.304.726 0 .26.105.508.29.689l2.443 2.35a.027.027 0 01.007.02l-.588 3.294a.985.985 0 00.106.627zm4.324-11.046l.006-.005h.013l.006.006c.006 0 .01.002.015.006.005.004.006.009.006.015l1.492 2.983a.996.996 0 00.745.548l3.341.486c.006 0 .012 0 .018.004h.009l.007.005-.007.015-2.423 2.35a.957.957 0 00-.284.883l.581 3.288-.013.013h-.014a.008.008 0 01-.008 0 .05.05 0 01-.019-.007h-.006l-2.97-1.551a.995.995 0 00-.938.007l-2.99 1.567h-.01a.03.03 0 01-.03-.022v-.013l.581-3.288a.999.999 0 00-.284-.878L21.3 7.317c0-.01 0-.019.006-.027l.04-.013 3.32-.476a1 1 0 00.746-.548l1.492-2.99a.035.035 0 01.014-.015zm14.159 11.046a1 1 0 001.333.422l3.005-1.57a.047.047 0 01.026-.008l2.985 1.558a.982.982 0 00.626.106.997.997 0 00.825-1.129l-.58-3.307-.005-.006c0-.003.005-.007.005-.007l2.422-2.344a.986.986 0 00.106-1.3 1.015 1.015 0 00-.66-.383l-3.342-.482c-.006 0-.012-.006-.019-.013L46.31 2.834a1 1 0 00-1.788 0L43.03 5.822c0 .014-.014.02-.027.02l-3.334.482a1.087 1.087 0 00-.548.264c-.194.19-.304.453-.304.726 0 .26.105.508.29.689l2.443 2.35a.027.027 0 01.007.02l-.588 3.294a.985.985 0 00.106.627zM45.4 3.248l.007-.005h.012l.006.006c.006 0 .011.002.016.006a.017.017 0 01.005.015l1.492 2.983a.996.996 0 00.745.548l3.342.486c.006 0 .012 0 .017.004h.01l.006.005-.007.015-2.422 2.35a.957.957 0 00-.285.883l.582 3.288-.014.013H48.9a.008.008 0 01-.008 0 .05.05 0 01-.02-.007h-.005l-2.97-1.551a.995.995 0 00-.939.007l-2.99 1.567h-.01a.03.03 0 01-.03-.022v-.013l.582-3.288a.999.999 0 00-.284-.878l-2.443-2.343c0-.01.001-.019.006-.027l.04-.013L43.15 6.8a1 1 0 00.745-.548l1.493-2.99a.035.035 0 01.013-.015zm14.16 11.046a1 1 0 001.332.422l3.005-1.57a.047.047 0 01.027-.008l2.984 1.558a.982.982 0 00.626.106.997.997 0 00.825-1.129l-.58-3.307-.005-.006c0-.003.005-.007.005-.007L70.2 8.009a.986.986 0 00.106-1.3 1.015 1.015 0 00-.66-.383l-3.342-.482c-.006 0-.012-.006-.019-.013l-1.492-2.997a1 1 0 00-1.79 0l-1.49 2.988c0 .014-.014.02-.027.02l-3.334.482a1.087 1.087 0 00-.547.264c-.195.19-.305.453-.305.726 0 .26.105.508.29.689l2.443 2.35a.028.028 0 01.007.02l-.588 3.294a.986.986 0 00.106.627zm4.323-11.046l.007-.005h.012l.006.006c.006 0 .011.002.016.006a.017.017 0 01.005.015l1.492 2.983a.997.997 0 00.745.548l3.342.486c.006 0 .012 0 .017.004h.01l.006.005-.007.015-2.422 2.35a.957.957 0 00-.285.883l.582 3.288-.013.013h-.014a.008.008 0 01-.008 0 .05.05 0 01-.02-.007h-.005l-2.97-1.551a.995.995 0 00-.939.007l-2.99 1.567h-.01a.03.03 0 01-.029-.022v-.013l.58-3.288a.999.999 0 00-.283-.878l-2.442-2.343c-.001-.01 0-.019.006-.027l.04-.013 3.32-.476a1 1 0 00.745-.548l1.493-2.99a.035.035 0 01.013-.015z"/><path d="M88.514 6.092l-3.928-.57-1.756-3.56a.497.497 0 00-.888 0l-1.756 3.56-3.928.57a.495.495 0 00-.274.845l2.842 2.771-.672 3.913a.494.494 0 00.718.521l3.514-1.847 3.513 1.847a.494.494 0 00.718-.521l-.671-3.913 2.842-2.771a.494.494 0 00-.274-.845zM84.75 9.318l.558 3.254-2.922-1.535-2.923 1.536.559-3.253-2.364-2.306 3.267-.475 1.46-2.96 1.461 2.96 3.268.475-2.364 2.304z"/></svg><svg viewBox="0 0 91 17" id="rating-stars-2" xmlns="http://www.w3.org/2000/svg"><path d="M14.581 5.622l-3.928-.571-1.756-3.56a.497.497 0 00-.888 0L6.253 5.05l-3.929.57a.494.494 0 00-.273.845l2.842 2.771-.672 3.913a.494.494 0 00.718.521l3.514-1.847 3.513 1.847a.494.494 0 00.718-.521l-.671-3.913 2.842-2.77a.494.494 0 00-.274-.845zm18.483 0l-3.928-.571-1.756-3.56a.497.497 0 00-.888 0l-1.756 3.56-3.928.57a.494.494 0 00-.274.845l2.842 2.771-.672 3.913a.494.494 0 00.718.521l3.514-1.847 3.513 1.847a.494.494 0 00.718-.521l-.671-3.913 2.842-2.77a.493.493 0 00-.274-.845z"/><path fill-rule="evenodd" clip-rule="evenodd" d="M41.076 13.823a1 1 0 001.333.422l3.005-1.57a.047.047 0 01.026-.007l2.985 1.558a.984.984 0 00.626.105.997.997 0 00.825-1.128l-.58-3.308-.005-.005v-.001c0-.002.005-.007.005-.007l2.422-2.343a.986.986 0 00.106-1.3 1.015 1.015 0 00-.66-.384l-3.342-.481c-.006 0-.012-.007-.019-.014L46.31 2.363a1 1 0 00-1.788 0L43.03 5.352c0 .014-.014.02-.027.02l-3.334.481a1.087 1.087 0 00-.548.264 1.02 1.02 0 00-.304.727c0 .259.105.507.29.688l2.443 2.35a.027.027 0 01.007.02l-.588 3.294a.985.985 0 00.106.627zM45.4 2.777l.007-.004h.012l.006.006c.006 0 .011 0 .016.005.004.004.006.01.005.015l1.492 2.983a.996.996 0 00.745.548l3.342.486c.006 0 .012.001.017.004h.01l.006.006-.007.014-2.422 2.35a.957.957 0 00-.285.883l.582 3.289-.014.012H48.9a.008.008 0 01-.008 0 .05.05 0 01-.02-.007h-.005l-2.97-1.55a.996.996 0 00-.939.006l-2.99 1.568h-.01a.03.03 0 01-.03-.023v-.013l.582-3.287a.999.999 0 00-.284-.878l-2.443-2.344c0-.01.001-.018.006-.027l.04-.013 3.321-.476a1 1 0 00.745-.548l1.493-2.99a.035.035 0 01.013-.015zm14.16 11.046a1 1 0 001.332.422l3.005-1.57a.047.047 0 01.027-.007l2.984 1.558a.984.984 0 00.626.105.997.997 0 00.825-1.128l-.58-3.308-.005-.005v-.001c0-.002.005-.007.005-.007L70.2 7.54a.986.986 0 00.106-1.3 1.015 1.015 0 00-.66-.384l-3.342-.481c-.006 0-.012-.007-.019-.014l-1.492-2.997a1 1 0 00-1.79 0l-1.49 2.989c0 .014-.014.02-.027.02l-3.334.481a1.087 1.087 0 00-.547.264 1.017 1.017 0 00-.305.727c0 .259.105.507.29.688l2.443 2.35a.028.028 0 01.007.02l-.588 3.294a.986.986 0 00.106.627zm4.323-11.046l.007-.004h.012l.006.006c.006 0 .011 0 .016.005.004.004.006.01.005.015l1.492 2.983a.997.997 0 00.745.548l3.342.486c.006 0 .012.001.017.004h.01l.006.006-.007.014-2.422 2.35a.957.957 0 00-.285.883l.582 3.289-.013.012h-.014a.008.008 0 01-.008 0 .05.05 0 01-.02-.007h-.005l-2.97-1.55a.996.996 0 00-.939.006l-2.99 1.568h-.01a.03.03 0 01-.029-.023v-.013l.58-3.287a.999.999 0 00-.283-.878l-2.442-2.344a.037.037 0 01.006-.027l.04-.013 3.32-.476a1 1 0 00.745-.548l1.493-2.99a.035.035 0 01.013-.015z"/><path d="M88.514 5.622l-3.928-.571-1.756-3.56a.497.497 0 00-.888 0l-1.756 3.56-3.928.57a.495.495 0 00-.274.845l2.842 2.771-.672 3.913a.494.494 0 00.718.521l3.514-1.847 3.513 1.847a.494.494 0 00.718-.521l-.671-3.913 2.842-2.77a.494.494 0 00-.274-.845zM84.75 8.847l.558 3.254-2.922-1.535-2.923 1.537.559-3.254-2.364-2.305 3.267-.475 1.46-2.96 1.461 2.96 3.268.475-2.364 2.303z"/></svg><svg viewBox="0 0 91 17" id="rating-stars-3" xmlns="http://www.w3.org/2000/svg"><path d="M14.581 6.15l-3.928-.571-1.756-3.56a.497.497 0 00-.888 0l-1.756 3.56-3.929.57a.494.494 0 00-.273.845l2.842 2.771-.672 3.913a.494.494 0 00.718.521l3.514-1.847 3.513 1.847a.494.494 0 00.718-.521l-.671-3.913 2.842-2.77a.494.494 0 00-.274-.846zm18.483 0l-3.928-.571-1.756-3.56a.497.497 0 00-.888 0l-1.756 3.56-3.928.57a.494.494 0 00-.274.845l2.842 2.771-.672 3.913a.494.494 0 00.718.521l3.514-1.847 3.513 1.847a.494.494 0 00.718-.521l-.671-3.913 2.842-2.77a.493.493 0 00-.274-.845zm18.483 0l-3.928-.571-1.756-3.56a.497.497 0 00-.888 0l-1.756 3.56-3.928.57a.494.494 0 00-.274.845l2.842 2.771-.671 3.913a.494.494 0 00.718.521l3.513-1.847 3.514 1.847a.494.494 0 00.718-.521l-.672-3.913 2.842-2.77a.493.493 0 00-.274-.845z"/><path fill-rule="evenodd" clip-rule="evenodd" d="M59.56 14.35a1 1 0 001.332.423l3.005-1.57a.047.047 0 01.027-.007l2.984 1.558a.982.982 0 00.626.105.997.997 0 00.825-1.129l-.58-3.307-.005-.005v-.001c0-.002.005-.007.005-.007L70.2 8.067a.986.986 0 00.106-1.3 1.015 1.015 0 00-.66-.384l-3.342-.482c-.006 0-.012-.006-.019-.013l-1.492-2.997a1 1 0 00-1.79 0l-1.49 2.989c0 .013-.014.02-.027.02l-3.334.481a1.087 1.087 0 00-.547.264 1.017 1.017 0 00-.305.726c0 .26.105.508.29.689l2.443 2.35a.027.027 0 01.007.02l-.588 3.294a.986.986 0 00.106.627zm4.323-11.045l.007-.004h.012l.006.005c.006 0 .011.002.016.006a.017.017 0 01.005.015l1.492 2.983a.997.997 0 00.745.548l3.342.486c.006 0 .012.001.017.004h.01l.006.006-.007.014-2.422 2.35a.957.957 0 00-.285.883l.582 3.288-.013.013h-.014a.008.008 0 01-.008 0 .052.052 0 01-.02-.007h-.005l-2.97-1.55a.997.997 0 00-.939.006l-2.99 1.567h-.01a.03.03 0 01-.029-.022v-.013l.58-3.287a.999.999 0 00-.283-.879l-2.442-2.343a.037.037 0 01.006-.027l.04-.013 3.32-.476a1 1 0 00.745-.548l1.493-2.99a.035.035 0 01.013-.015z"/><path d="M88.514 6.15l-3.928-.571-1.756-3.56a.497.497 0 00-.888 0l-1.756 3.56-3.928.57a.495.495 0 00-.274.845l2.842 2.771-.672 3.913a.494.494 0 00.718.521l3.514-1.847 3.513 1.847a.494.494 0 00.718-.521l-.671-3.913 2.842-2.77a.494.494 0 00-.274-.846zM84.75 9.374l.558 3.254-2.922-1.535-2.923 1.536.559-3.253-2.364-2.305 3.267-.475 1.46-2.96 1.461 2.96 3.268.475-2.364 2.303z"/></svg><svg viewBox="0 0 91 17" id="rating-stars-4" xmlns="http://www.w3.org/2000/svg"><path d="M14.581 5.678l-3.928-.571-1.756-3.56a.497.497 0 00-.888 0l-1.756 3.56-3.929.57a.494.494 0 00-.273.845l2.842 2.771-.672 3.913a.494.494 0 00.718.521l3.514-1.847 3.513 1.847a.494.494 0 00.718-.521l-.671-3.913 2.842-2.77a.494.494 0 00-.274-.845zm18.483 0l-3.928-.571-1.756-3.56a.497.497 0 00-.888 0l-1.756 3.56-3.928.57a.494.494 0 00-.274.845l2.842 2.771-.672 3.913a.494.494 0 00.718.521l3.514-1.847 3.513 1.847a.494.494 0 00.718-.521l-.671-3.913 2.842-2.77a.493.493 0 00-.274-.845zm18.483 0l-3.928-.571-1.756-3.56a.497.497 0 00-.888 0l-1.756 3.56-3.928.57a.494.494 0 00-.274.845l2.842 2.771-.671 3.913a.494.494 0 00.718.521l3.513-1.847 3.514 1.847a.494.494 0 00.718-.521l-.672-3.913 2.842-2.77a.493.493 0 00-.274-.845zm18.483 0l-3.927-.571-1.756-3.56a.497.497 0 00-.888 0l-1.757 3.56-3.928.57a.495.495 0 00-.274.845l2.842 2.771-.671 3.913a.494.494 0 00.718.521l3.513-1.847 3.514 1.847a.494.494 0 00.718-.521l-.672-3.913 2.843-2.77a.494.494 0 00-.274-.845zm18.484 0l-3.928-.571-1.756-3.56a.497.497 0 00-.888 0l-1.756 3.56-3.928.57a.495.495 0 00-.274.845l2.842 2.771-.672 3.913a.494.494 0 00.718.521l3.514-1.847 3.513 1.847a.494.494 0 00.718-.521l-.671-3.913 2.842-2.77a.494.494 0 00-.274-.845zM84.75 8.904l.558 3.253-2.922-1.535-2.923 1.537.559-3.254L77.658 6.6l3.267-.475 1.46-2.96 1.461 2.96 3.268.475-2.364 2.304z"/></svg><svg viewBox="0 0 91 17" id="rating-stars-5" xmlns="http://www.w3.org/2000/svg"><path d="M14.581 6.207l-3.928-.571-1.756-3.56a.497.497 0 00-.888 0l-1.756 3.56-3.929.57a.494.494 0 00-.273.845l2.842 2.771-.672 3.913a.494.494 0 00.718.521l3.514-1.847 3.513 1.847a.494.494 0 00.718-.521l-.671-3.913 2.842-2.77a.494.494 0 00-.274-.845zm18.483 0l-3.928-.571-1.756-3.56a.497.497 0 00-.888 0l-1.756 3.56-3.928.57a.494.494 0 00-.274.845l2.842 2.771-.672 3.913a.494.494 0 00.718.521l3.514-1.847 3.513 1.847a.494.494 0 00.718-.521l-.671-3.913 2.842-2.77a.493.493 0 00-.274-.845zm18.483 0l-3.928-.571-1.756-3.56a.497.497 0 00-.888 0l-1.756 3.56-3.928.57a.494.494 0 00-.274.845l2.842 2.771-.671 3.913a.494.494 0 00.718.521l3.513-1.847 3.514 1.847a.494.494 0 00.718-.521l-.672-3.913 2.842-2.77a.493.493 0 00-.274-.845zm18.483 0l-3.927-.571-1.756-3.56a.497.497 0 00-.888 0l-1.757 3.56-3.928.57a.495.495 0 00-.274.845l2.842 2.771-.671 3.913a.494.494 0 00.718.521l3.513-1.847 3.514 1.847a.494.494 0 00.718-.521l-.672-3.913 2.843-2.77a.494.494 0 00-.274-.845zm18.484 0l-3.928-.571-1.756-3.56a.497.497 0 00-.888 0l-1.756 3.56-3.928.57a.495.495 0 00-.274.845l2.842 2.771-.672 3.913a.494.494 0 00.718.521l3.514-1.847 3.513 1.847a.494.494 0 00.718-.521l-.671-3.913 2.842-2.77a.494.494 0 00-.274-.845z"/></svg><svg viewBox="0 0 32 32" id="slider-next" xmlns="http://www.w3.org/2000/svg"><path d="M18.667 16.001l-5.334-5.333 1.334-1.333L21.334 16l-6.667 6.667-1.333-1.333L18.666 16z"/><circle cx="16" cy="16" r="15.5"/></svg><svg viewBox="0 0 13 22" id="slider-next--square" xmlns="http://www.w3.org/2000/svg"><path d="M12.5 11.797a1.103 1.103 0 000-1.547L3.406 1.11c-.469-.423-1.172-.423-1.594 0L.734 2.186c-.421.422-.421 1.126 0 1.594L7.954 11l-7.22 7.266c-.421.468-.421 1.172 0 1.593l1.079 1.078c.421.422 1.125.422 1.593 0l9.094-9.14z"/></svg><svg viewBox="0 0 32 32" id="slider-prev" xmlns="http://www.w3.org/2000/svg"><path d="M13.333 15.999l5.334 5.333-1.333 1.333L10.667 16l6.667-6.667 1.333 1.333L13.333 16z"/><circle cx="16" cy="16" r="15.5"/></svg><svg viewBox="0 0 13 22" id="slider-prev--square" xmlns="http://www.w3.org/2000/svg"><path d="M.734 10.25a1.104 1.104 0 000 1.547l9.094 9.14c.469.422 1.172.422 1.594 0L12.5 19.86c.422-.422.422-1.125 0-1.593L5.281 11 12.5 3.781c.422-.469.422-1.172 0-1.594L11.422 1.11c-.422-.421-1.125-.421-1.594 0L.734 10.25z"/></svg><svg viewBox="0 0 24 24" id="sliders" xmlns="http://www.w3.org/2000/svg"><path d="M4 21v-7m0-4V3m8 18v-9m0-4V3m8 18v-5m0-4V3M1 14h6m2-6h6m2 8h6"/></svg><svg viewBox="0 0 9 4" id="sort-triangle" xmlns="http://www.w3.org/2000/svg"><path d="M4.618 4l-4-4h8l-4 4z"/></svg><svg viewBox="0 0 25 24" id="student" xmlns="http://www.w3.org/2000/svg"><path fill-rule="evenodd" clip-rule="evenodd" d="M12.7 2.06a.75.75 0 00-.583 0L.867 6.81a.75.75 0 000 1.38l3.791 1.602v3.803a2.901 2.901 0 00-1.327.757c-.579.58-.923 1.41-.923 2.43v4.5c0 .248.128.486.335.624.06.04.118.073.22.124.124.062.297.138.52.213.448.149 1.09.288 1.925.288s1.478-.14 1.925-.288c.223-.075.396-.15.52-.213a2.11 2.11 0 00.21-.117.762.762 0 00.345-.632v-4.5c0-1.018-.344-1.85-.923-2.428a2.9 2.9 0 00-1.327-.758v-3.17l5.958 2.516a.75.75 0 00.584 0l5.208-2.2v4.003a2.552 2.552 0 01-.079.085 4.057 4.057 0 01-.849.65c-.826.488-2.254 1.021-4.572 1.021a13.04 13.04 0 01-1.654-.1.75.75 0 10-.192 1.487c.56.072 1.173.113 1.846.113 2.558 0 4.255-.592 5.335-1.23.537-.316.913-.64 1.162-.896.143-.147.285-.306.393-.482a.75.75 0 00.11-.392v-4.892l4.542-1.917a.75.75 0 000-1.382L12.7 2.06zM5.408 15a1.43 1.43 0 00-1.016.413c-.265.265-.484.7-.484 1.368v4.022c.3.105.797.228 1.5.228s1.201-.123 1.5-.228V16.78c0-.669-.218-1.103-.483-1.368A1.431 1.431 0 005.408 15zm7-3.564L3.086 7.5l9.322-3.936L21.73 7.5l-9.322 3.936z"/></svg><svg viewBox="0 0 125 124" id="success" xmlns="http://www.w3.org/2000/svg"><circle cx="62.5" cy="62" r="62"/><path d="M92.247 41.528L53.811 79.964 36.34 62.493"/></svg><svg viewBox="0 0 31 30" id="tg-white" xmlns="http://www.w3.org/2000/svg"><path fill-rule="evenodd" clip-rule="evenodd" d="M27.756 14.873c0 6.844-5.55 12.393-12.394 12.393-6.845 0-12.394-5.549-12.394-12.393 0-6.845 5.55-12.394 12.394-12.394 6.845 0 12.394 5.549 12.394 12.393zm-11.95-3.245c-1.205.502-3.615 1.54-7.228 3.114-.586.233-.894.461-.922.684-.047.377.425.526 1.069.728.087.028.178.056.27.087.633.205 1.485.446 1.927.455.402.01.85-.156 1.344-.496 3.376-2.279 5.119-3.43 5.228-3.455.077-.018.184-.04.257.025.072.064.065.186.057.219-.046.2-1.9 1.923-2.86 2.815-.3.278-.511.475-.555.52a9.8 9.8 0 01-.291.288c-.588.567-1.029.992.024 1.686.506.334.911.61 1.315.885.442.3.882.6 1.451.973.145.095.284.194.419.29.513.366.975.695 1.544.643.332-.03.674-.342.848-1.271.41-2.195 1.217-6.95 1.404-8.91a2.183 2.183 0 00-.021-.488.522.522 0 00-.176-.336c-.149-.12-.378-.146-.48-.144-.467.008-1.182.257-4.624 1.688z"/></svg><svg viewBox="0 0 18 14" id="tiles-btn" xmlns="http://www.w3.org/2000/svg"><path d="M.618 6.234h5v-6h-5v6zm0 7h5v-6h-5v6zm6 0h5v-6h-5v6zm6 0h5v-6h-5v6zm-6-7h5v-6h-5v6zm6-6v6h5v-6h-5z"/></svg><svg viewBox="0 0 24 24" id="trash" xmlns="http://www.w3.org/2000/svg"><path d="M3 6h18M8 6V4a2 2 0 012-2h4a2 2 0 012 2v2m3 0v14a2 2 0 01-2 2H7a2 2 0 01-2-2V6h14zm-9 5v6m4-6v6"/></svg><svg viewBox="0 0 14 18" id="triangle" xmlns="http://www.w3.org/2000/svg"><path d="M1.167 1.5L12.832 9 1.166 16.5v-15z"/></svg><svg viewBox="0 0 24 24" id="unlocked" xmlns="http://www.w3.org/2000/svg"><path d="M19 11H5a2 2 0 00-2 2v7a2 2 0 002 2h14a2 2 0 002-2v-7a2 2 0 00-2-2zM7 11V7a5 5 0 019.9-1"/></svg><svg viewBox="0 0 24 25" id="upload" xmlns="http://www.w3.org/2000/svg"><path d="M21 15.5v4a2 2 0 01-2 2H5a2 2 0 01-2-2v-4m14-7l-5-5-5 5m5-5v12"/></svg><svg viewBox="0 0 24 24" id="users" xmlns="http://www.w3.org/2000/svg"><path d="M17 21v-2a4 4 0 00-4-4H5a4 4 0 00-4 4v2m8-10a4 4 0 100-8 4 4 0 000 8zm14 10v-2a4 4 0 00-3-3.87m-4-12a4 4 0 010 7.75"/></svg><svg viewBox="0 0 32 33" id="vk" xmlns="http://www.w3.org/2000/svg"><path d="M10.699 13.381c.085 4.16 2.165 6.656 5.813 6.656h.213v-2.379c1.339.134 2.352 1.115 2.758 2.379h1.893a5.264 5.264 0 00-2.736-3.339 5.082 5.082 0 002.336-3.322h-1.717c-.374 1.322-1.483 2.522-2.534 2.634v-2.629h-1.722v4.608c-1.067-.267-2.411-1.557-2.47-4.608H10.7z"/><path fill-rule="evenodd" clip-rule="evenodd" d="M16 .512c8.837 0 16 7.163 16 16 0 8.836-7.163 16-16 16s-16-7.164-16-16c0-8.837 7.163-16 16-16zm-8 15.68c0-3.622 0-5.43 1.12-6.56 1.136-1.12 2.944-1.12 6.56-1.12h.64c3.621 0 5.43 0 6.56 1.12C24 10.768 24 12.576 24 16.192v.64c0 3.621 0 5.43-1.12 6.56-1.136 1.12-2.944 1.12-6.56 1.12h-.64c-3.621 0-5.43 0-6.56-1.12C8 22.256 8 20.448 8 16.832v-.64z"/></svg><svg viewBox="0 0 31 30" id="vk-white" xmlns="http://www.w3.org/2000/svg"><path fill-rule="evenodd" clip-rule="evenodd" d="M4.959 4.214C3.224 5.966 3.224 8.766 3.224 14.377v.991c0 5.602 0 8.403 1.735 10.163 1.751 1.735 4.552 1.735 10.163 1.735h.991c5.602 0 8.403 0 10.163-1.735 1.735-1.752 1.735-4.553 1.735-10.163v-.991c0-5.602 0-8.403-1.735-10.163-1.752-1.735-4.553-1.735-10.163-1.735h-.991c-5.602 0-8.403 0-10.163 1.735zm2.445 5.808c.133 6.445 3.355 10.312 9.006 10.312h.331v-3.685c2.074.206 3.644 1.727 4.272 3.685h2.933a8.156 8.156 0 00-4.239-5.172 7.874 7.874 0 003.62-5.148h-2.661c-.579 2.05-2.297 3.908-3.925 4.082v-4.074h-2.669v7.14c-1.652-.414-3.734-2.413-3.825-7.14H7.404z"/></svg><svg viewBox="0 0 24 25" id="wallet" xmlns="http://www.w3.org/2000/svg"><path fill-rule="evenodd" clip-rule="evenodd" d="M1.25 11.445A3.75 3.75 0 015 7.695h13.717a2.7 2.7 0 012.7 2.7v1.203c.743.043 1.333.66 1.333 1.414v3.867c0 .754-.59 1.37-1.333 1.414v1.203a2.7 2.7 0 01-2.7 2.7H5a3.75 3.75 0 01-3.75-3.75v-7zM5 9.195a2.25 2.25 0 00-2.25 2.25v7A2.25 2.25 0 005 20.695h13.717a1.2 1.2 0 001.2-1.2v-1.283c0-.754.59-1.371 1.333-1.414v-3.705a1.417 1.417 0 01-1.333-1.414v-1.284a1.2 1.2 0 00-1.2-1.2H5z"/><path fill-rule="evenodd" clip-rule="evenodd" d="M15.25 13.445c0-.966.784-1.75 1.75-1.75h4c.966 0 1.75.784 1.75 1.75v3a1.75 1.75 0 01-1.75 1.75h-4a1.75 1.75 0 01-1.75-1.75v-3zm1.75-.25a.25.25 0 00-.25.25v3c0 .139.112.25.25.25h4a.25.25 0 00.25-.25v-3a.25.25 0 00-.25-.25h-4zm-3.155-8.968a.25.25 0 00-.35-.094l-5.83 3.562h8.072l-1.892-3.468zm-1.132-1.374a1.75 1.75 0 012.448.656l2.417 4.43a.85.85 0 01-.747 1.256H5.355c-.858 0-1.175-1.127-.443-1.575l7.8-4.767zM9 18.195a.75.75 0 01-.75-.75v-5a.75.75 0 111.5 0v5a.75.75 0 01-.75.75z"/></svg><svg viewBox="0 0 32 33" id="youtube" xmlns="http://www.w3.org/2000/svg"><path d="M0 16.512c0 8.836 7.163 16 16 16s16-7.164 16-16c0-8.837-7.163-16-16-16s-16 7.163-16 16z"/><path d="M23.6 12.612c-.2-.7-.7-1.2-1.4-1.4-1.2-.3-6.3-.3-6.3-.3s-5 0-6.3.3c-.7.2-1.2.7-1.4 1.4-.2 1.3-.2 3.9-.2 3.9s0 2.6.3 3.9c.2.7.7 1.2 1.4 1.4 1.2.3 6.3.3 6.3.3s5 0 6.3-.3c.7-.2 1.2-.7 1.4-1.4.3-1.3.3-3.9.3-3.9s0-2.6-.4-3.9zm-9.2 6.3v-4.8l4.2 2.4-4.2 2.4z"/></svg><svg viewBox="0 0 30 30" id="youtube-white" xmlns="http://www.w3.org/2000/svg"><path fill-rule="evenodd" clip-rule="evenodd" d="M25.525 5.528a3.414 3.414 0 012.41 2.41c.568 2.126.57 6.563.57 6.563s0 4.438-.57 6.563a3.414 3.414 0 01-2.41 2.41c-2.126.57-10.653.57-10.653.57s-8.527 0-10.652-.57a3.414 3.414 0 01-2.41-2.41c-.57-2.125-.57-6.563-.57-6.563s0-4.437.57-6.563a3.415 3.415 0 012.41-2.41c2.125-.57 10.652-.57 10.652-.57s8.527 0 10.653.57zm-6.298 8.974l-7.084 4.089v-8.179l7.084 4.09z"/></svg></svg>