<svg width="56" height="56" viewBox="0 0 56 56" fill="none" xmlns="http://www.w3.org/2000/svg">
<circle cx="28" cy="28" r="28" fill="white"/>
<g clip-path="url(#clip0_1056_13710)">
<path d="M33.2833 12C24.2645 17.1527 21.0188 28.1241 12 33.2833C15.5788 36.862 19.138 40.4212 22.7167 44C31.7355 38.8473 34.9812 27.8759 44 22.7167C40.4212 19.138 36.862 15.5788 33.2833 12ZM31.7616 31.7616C29.6784 33.8449 26.302 33.8449 24.2449 31.7616C22.1616 29.6784 22.1616 26.302 24.2449 24.2449C26.3282 22.1616 29.7045 22.1616 31.7616 24.2449C33.8384 26.3216 33.8384 29.6784 31.7616 31.7616Z" fill="#B311A2"/>
<path d="M29.3248 28.4215L26.6328 31.3913L25.7256 30.5689L28.393 27.6263C28.6109 27.3859 28.7468 27.1606 28.8007 26.9505C28.8569 26.7379 28.8484 26.5395 28.7752 26.3553C28.6993 26.1689 28.5761 25.9984 28.4055 25.8437C28.2375 25.6914 28.0521 25.5869 27.8493 25.5302C27.6462 25.4685 27.4376 25.4701 27.2234 25.535C27.009 25.5949 26.8034 25.7334 26.6066 25.9505L25.6753 26.9779L30.4092 31.269L29.3549 32.4321L23.7099 27.3152L25.692 25.1285C26.095 24.6839 26.5182 24.3755 26.9617 24.203C27.4076 24.028 27.8461 23.9806 28.2773 24.0607C28.7085 24.1408 29.1024 24.3425 29.4591 24.6658C29.8339 25.0056 30.076 25.3851 30.1855 25.8045C30.2974 26.2214 30.2803 26.6532 30.1343 27.1C29.9906 27.5442 29.7208 27.9847 29.3248 28.4215ZM29.836 28.4964L30.7432 29.3188L27.8579 32.5018L26.9507 31.6795L29.836 28.4964Z" fill="#B311A2"/>
</g>
<defs>
<clipPath id="clip0_1056_13710">
<rect width="32" height="32" fill="white" transform="translate(12 12)"/>
</clipPath>
</defs>
</svg>
