<svg width="22" height="23" viewBox="0 0 22 23" fill="none" xmlns="http://www.w3.org/2000/svg">
<path d="M20.4383 11.05L11.2483 20.24C10.1225 21.3658 8.59552 21.9983 7.00334 21.9983C5.41115 21.9983 3.88418 21.3658 2.75834 20.24C1.63249 19.1141 1 17.5872 1 15.995C1 14.4028 1.63249 12.8758 2.75834 11.75L11.9483 2.55998C12.6989 1.80942 13.7169 1.38776 14.7783 1.38776C15.8398 1.38776 16.8578 1.80942 17.6083 2.55998C18.3589 3.31054 18.7806 4.32852 18.7806 5.38998C18.7806 6.45144 18.3589 7.46942 17.6083 8.21998L8.40834 17.41C8.03306 17.7853 7.52406 17.9961 6.99334 17.9961C6.46261 17.9961 5.95362 17.7853 5.57834 17.41C5.20306 17.0347 4.99222 16.5257 4.99222 15.995C4.99222 15.4643 5.20306 14.9553 5.57834 14.58L14.0683 6.09998" stroke="#B3B3B3" stroke-width="2" stroke-linecap="round" stroke-linejoin="round"/>
</svg>
