<svg width="24" height="25" viewBox="0 0 24 25" fill="none" xmlns="http://www.w3.org/2000/svg">
<path fill-rule="evenodd" clip-rule="evenodd" d="M5.25 6.04546C5.25 3.64303 7.19756 1.69547 9.6 1.69547H17C20.1756 1.69547 22.75 4.26983 22.75 7.44547V9.60336C22.75 11.5872 21.1418 13.1955 19.1579 13.1955C18.6596 13.1955 18.2697 12.8008 18.2459 12.3263C18.2333 12.0758 18.1837 11.4955 17.9943 10.8393C17.8034 10.1782 17.4854 9.49154 16.9697 8.9758C15.5016 7.50774 13.2612 7.19547 10.8686 7.19547H6.4C5.76487 7.19547 5.25 6.68059 5.25 6.04546ZM6.77128 5.69547H10.8686C13.2864 5.69547 16.0969 5.98172 18.0303 7.91513C18.7896 8.67445 19.2048 9.62415 19.4354 10.4232C19.5652 10.8728 19.6413 11.291 19.686 11.6282C20.5858 11.3942 21.25 10.5764 21.25 9.60336V7.44547C21.25 5.09825 19.3472 3.19547 17 3.19547H9.6C8.14448 3.19547 6.94381 4.28657 6.77128 5.69547Z" fill="#14142B"/>
<path fill-rule="evenodd" clip-rule="evenodd" d="M1.25 12.5169C1.25 8.74953 4.30406 5.69547 8.07143 5.69547H12.9286C16.6959 5.69547 19.75 8.74952 19.75 12.5169C19.75 16.2843 16.6959 19.3383 12.9286 19.3383H12.0249L8.66391 22.6994C7.76746 23.5958 6.25987 22.7422 6.56735 21.5123L7.11579 19.3186C3.83333 19.0608 1.25 16.3155 1.25 12.9669V12.5169ZM8.07143 7.19547C5.13248 7.19547 2.75 9.57795 2.75 12.5169V12.9669C2.75 15.6573 4.93102 17.8383 7.62144 17.8383C8.33794 17.8383 8.86367 18.5117 8.6899 19.2068L8.24147 21.0005L11.054 18.188C11.2778 17.9641 11.5815 17.8383 11.8981 17.8383H12.9286C15.8675 17.8383 18.25 15.4558 18.25 12.5169C18.25 9.57795 15.8675 7.19547 12.9286 7.19547H8.07143Z" fill="#14142B"/>
</svg>
