<svg width="25" height="25" viewBox="0 0 25 25" fill="none" xmlns="http://www.w3.org/2000/svg">
<g clip-path="url(#clip0_5608_28285)">
<path d="M21.721 4.72498C21.2102 4.21399 20.6038 3.80863 19.9363 3.53207C19.2689 3.25551 18.5535 3.11316 17.831 3.11316C17.1085 3.11316 16.3931 3.25551 15.7256 3.53207C15.0582 3.80863 14.4517 4.21399 13.941 4.72498L12.881 5.78498L11.821 4.72498C10.7893 3.69329 9.39001 3.11369 7.93098 3.11369C6.47195 3.11369 5.07267 3.69329 4.04098 4.72498C3.00929 5.75668 2.42969 7.15595 2.42969 8.61498C2.42969 10.074 3.00929 11.4733 4.04098 12.505L5.10098 13.565L12.881 21.345L20.661 13.565L21.721 12.505C22.232 11.9942 22.6373 11.3878 22.9139 10.7203C23.1905 10.0529 23.3328 9.33747 23.3328 8.61498C23.3328 7.8925 23.1905 7.17709 22.9139 6.50963C22.6373 5.84217 22.232 5.23574 21.721 4.72498V4.72498Z" stroke="#8A8894" stroke-width="2" stroke-linecap="round" stroke-linejoin="round"/>
</g>
<defs>
<clipPath id="clip0_5608_28285">
<rect width="24" height="24" fill="white" transform="translate(0.880859 0.11499)"/>
</clipPath>
</defs>
</svg>
