<svg width="22" height="13" viewBox="0 0 22 13" fill="none" xmlns="http://www.w3.org/2000/svg">
<path d="M8.34178 12.7824L6.41078 12.2644L7.19778 9.32535C6.01975 8.89088 4.9249 8.25771 3.96078 7.45335L1.80778 9.60735L0.392781 8.19235L2.54678 6.03935C1.33086 4.58311 0.513869 2.83611 0.175781 0.969351L2.14378 0.610352C2.90278 4.81235 6.57878 8.00035 10.9998 8.00035C15.4198 8.00035 19.0968 4.81235 19.8558 0.610352L21.8238 0.968351C21.4861 2.83537 20.6695 4.58272 19.4538 6.03935L21.6068 8.19235L20.1918 9.60735L18.0388 7.45335C17.0747 8.25771 15.9798 8.89088 14.8018 9.32535L15.5888 12.2654L13.6578 12.7824L12.8698 9.84235C11.6321 10.0544 10.3674 10.0544 9.12978 9.84235L8.34178 12.7824Z" fill="#5B249C"/>
</svg>
