<svg width="24" height="25" viewBox="0 0 24 25" fill="none" xmlns="http://www.w3.org/2000/svg">
<g clip-path="url(#clip0_70_21430)">
<path d="M13.7295 21.4079C13.5537 21.711 13.3014 21.9625 12.9978 22.1374C12.6941 22.3123 12.3499 22.4044 11.9995 22.4044C11.6492 22.4044 11.3049 22.3123 11.0013 22.1374C10.6977 21.9625 10.4453 21.711 10.2695 21.4079" stroke="#B3B3B3" stroke-width="2" stroke-linecap="round" stroke-linejoin="round"/>
<path d="M18.6284 13.4079C18.1835 11.7793 17.9714 10.0959 17.9984 8.4079" stroke="#B3B3B3" stroke-width="2" stroke-linecap="round" stroke-linejoin="round"/>
<path d="M6.26 6.66791C6.08627 7.23152 5.99861 7.81813 6 8.40791C6 15.4079 3 17.4079 3 17.4079H17" stroke="#B3B3B3" stroke-width="2" stroke-linecap="round" stroke-linejoin="round"/>
<path d="M18.0019 8.40789C18.0035 7.32095 17.7098 6.254 17.1522 5.32098C16.5946 4.38797 15.794 3.62395 14.836 3.11053C13.878 2.59711 12.7984 2.35358 11.7128 2.40596C10.6271 2.45833 9.57604 2.80464 8.67188 3.40789" stroke="#B3B3B3" stroke-width="2" stroke-linecap="round" stroke-linejoin="round"/>
<path d="M1 1.4079L23 23.4079" stroke="#B3B3B3" stroke-width="2" stroke-linecap="round" stroke-linejoin="round"/>
</g>
<defs>
<clipPath id="clip0_70_21430">
<rect width="24" height="24" fill="white" transform="translate(0 0.407898)"/>
</clipPath>
</defs>
</svg>
