<svg width="24" height="25" viewBox="0 0 24 25" fill="none" xmlns="http://www.w3.org/2000/svg">
<path fill-rule="evenodd" clip-rule="evenodd" d="M16.2972 5.69974C17.5241 6.39242 18.4642 7.51367 18.4642 9.07498V14.3216L21.0887 17.2853C22.0887 18.4146 21.287 20.1955 19.7786 20.1955H4.22119C2.71274 20.1955 1.91101 18.4145 2.91107 17.2853L5.53559 14.3216V9.07492C5.53559 7.51363 6.47571 6.3924 7.70258 5.69973C8.91583 5.01475 10.4805 4.69546 11.9999 4.69547C13.5192 4.69547 15.0839 5.01475 16.2972 5.69974ZM8.44003 7.00593C7.52404 7.52308 7.03559 8.21658 7.03559 9.07492V14.4168C7.03559 14.7228 6.92338 15.017 6.7214 15.2451L4.03403 18.2797C3.89116 18.441 4.0057 18.6955 4.22119 18.6955H19.7786C19.9941 18.6955 20.1086 18.441 19.9657 18.2797L17.2784 15.2451C17.0764 15.017 16.9642 14.7228 16.9642 14.4168V9.07498C16.9642 8.21661 16.4757 7.5231 15.5597 7.00594C14.6301 6.48109 13.3377 6.19547 11.9999 6.19547C10.6621 6.19546 9.36964 6.48109 8.44003 7.00593Z" fill="#14142B"/>
<path d="M13.9999 3.94547C13.9999 5.05003 13.1044 5.94547 11.9999 5.94547C10.8953 5.94547 9.99988 5.05003 9.99988 3.94547C9.99988 2.8409 10.8953 1.94547 11.9999 1.94547C13.1044 1.94547 13.9999 2.8409 13.9999 3.94547Z" fill="#14142B"/>
<path fill-rule="evenodd" clip-rule="evenodd" d="M7.74988 18.6955H16.2495V19.4455C16.2495 20.4806 15.7688 21.4451 14.9624 22.1362C14.1597 22.8243 13.0925 23.1955 11.9995 23.1955C10.9115 23.1955 9.81802 22.8274 9.01169 22.1362C8.1931 21.4346 7.74988 20.4653 7.74988 19.4455V18.6955ZM9.39786 20.1955C9.51922 20.49 9.71553 20.7639 9.98787 20.9973C10.4943 21.4314 11.2309 21.6955 11.9995 21.6955C12.763 21.6955 13.4763 21.4345 13.9862 20.9973C14.2622 20.7608 14.4641 20.4863 14.5907 20.1955H9.39786Z" fill="#14142B"/>
<path fill-rule="evenodd" clip-rule="evenodd" d="M16.8568 3.55959C17.0699 3.20441 17.5306 3.08923 17.8857 3.30235C20.7353 5.01205 21.2499 7.86836 21.2499 10.4455C21.2499 10.8597 20.9141 11.1955 20.4999 11.1955C20.0857 11.1955 19.7499 10.8597 19.7499 10.4455C19.7499 8.02257 19.2645 5.87888 17.114 4.58858C16.7588 4.37547 16.6436 3.91478 16.8568 3.55959Z" fill="#14142B"/>
<path fill-rule="evenodd" clip-rule="evenodd" d="M7.143 3.55959C6.92989 3.20441 6.46919 3.08923 6.11401 3.30235C4.74372 4.12452 3.87535 5.11738 3.36887 6.3474C2.87424 7.54865 2.74988 8.91833 2.74988 10.4455C2.74988 10.8597 3.08566 11.1955 3.49988 11.1955C3.91409 11.1955 4.24988 10.8597 4.24988 10.4455C4.24988 8.9726 4.37552 7.84228 4.75589 6.91853C5.12441 6.02355 5.75604 5.26641 6.88575 4.58858C7.24093 4.37547 7.35611 3.91478 7.143 3.55959Z" fill="#14142B"/>
</svg>
