<svg width="32" height="33" viewBox="0 0 32 33" fill="none" xmlns="http://www.w3.org/2000/svg">
<path d="M0 16.5117C0 7.67516 7.16344 0.511719 16 0.511719C24.8366 0.511719 32 7.67516 32 16.5117C32 25.3483 24.8366 32.5117 16 32.5117C7.16344 32.5117 0 25.3483 0 16.5117Z" fill="#FF8800"/>
<path fill-rule="evenodd" clip-rule="evenodd" d="M20.8763 11.982C20.8763 14.6512 18.7003 16.8272 16.0309 16.8272C13.3327 16.8272 11.1567 14.6512 11.1567 11.982C11.1567 9.31273 13.3327 7.13672 16.0309 7.13672C18.7003 7.13672 20.8763 9.31273 20.8763 11.982ZM18.0329 11.982C18.0329 10.8795 17.1335 9.98004 16.0309 9.98004C14.8995 9.98004 14 10.8795 14.0291 11.982C14.0291 13.0845 14.9285 13.9839 16.0309 13.9839C17.1335 13.9839 18.0329 13.0845 18.0329 11.982Z" fill="white"/>
<path d="M20.7892 19.6416C19.9188 20.1928 18.9613 20.57 17.9749 20.8021L20.7312 23.4713C21.2824 24.0227 21.2824 24.922 20.7312 25.4733C20.18 26.0245 19.2805 26.0245 18.7293 25.4733L16.06 22.804L13.3908 25.4733C13.1007 25.7344 12.7525 25.8795 12.3753 25.8795C11.9982 25.8795 11.65 25.7635 11.3599 25.4733C10.8086 24.922 10.8086 24.0227 11.3599 23.4713L14.0581 20.7731C13.0716 20.5409 12.1142 20.1639 11.2438 19.6125C10.5765 19.2064 10.3734 18.336 10.7506 17.6687C11.1858 17.0013 12.0562 16.8273 12.7235 17.2335C14.6964 18.4811 17.2785 18.4811 19.2515 17.2335C19.9188 16.7983 20.8183 17.0013 21.2244 17.6687C21.6596 18.336 21.4565 19.2353 20.7892 19.6416Z" fill="white"/>
</svg>
