<svg width="91" height="17" viewBox="0 0 91 17" fill="none" xmlns="http://www.w3.org/2000/svg">
<path d="M14.581 5.67774L10.6528 5.10684L8.89675 1.54685C8.84878 1.44938 8.76988 1.37048 8.67241 1.32252C8.42796 1.20184 8.13091 1.3024 8.00868 1.54685L6.25267 5.10684L2.32446 5.67774C2.21616 5.69321 2.11715 5.74426 2.04134 5.82162C1.94969 5.91582 1.89918 6.04255 1.90092 6.17397C1.90266 6.30539 1.95651 6.43074 2.05062 6.52248L4.89273 9.29342L4.22127 13.2062C4.20552 13.2972 4.21559 13.3908 4.25034 13.4764C4.28509 13.562 4.34312 13.6361 4.41786 13.6904C4.4926 13.7447 4.58105 13.7769 4.67319 13.7835C4.76532 13.79 4.85746 13.7707 4.93914 13.7275L8.45271 11.8802L11.9663 13.7275C12.0622 13.7786 12.1736 13.7956 12.2804 13.7771C12.5496 13.7306 12.7306 13.4754 12.6842 13.2062L12.0127 9.29342L14.8548 6.52248C14.9322 6.44667 14.9832 6.34765 14.9987 6.23935C15.0405 5.9686 14.8517 5.71796 14.581 5.67774Z" fill="#F77A55"/>
<path d="M33.0641 5.67774L29.1359 5.10684L27.3799 1.54685C27.3319 1.44938 27.253 1.37048 27.1556 1.32252C26.9111 1.20184 26.6141 1.3024 26.4918 1.54685L24.7358 5.10684L20.8076 5.67774C20.6993 5.69321 20.6003 5.74426 20.5245 5.82162C20.4328 5.91582 20.3823 6.04255 20.3841 6.17397C20.3858 6.30539 20.4397 6.43074 20.5338 6.52248L23.3759 9.29342L22.7044 13.2062C22.6887 13.2972 22.6987 13.3908 22.7335 13.4764C22.7682 13.562 22.8263 13.6361 22.901 13.6904C22.9758 13.7447 23.0642 13.7769 23.1563 13.7835C23.2485 13.79 23.3406 13.7707 23.4223 13.7275L26.9359 11.8802L30.4494 13.7275C30.5454 13.7786 30.6568 13.7956 30.7635 13.7771C31.0327 13.7306 31.2137 13.4754 31.1673 13.2062L30.4959 9.29342L33.338 6.52248C33.4153 6.44667 33.4664 6.34765 33.4818 6.23935C33.5236 5.9686 33.3349 5.71796 33.0641 5.67774Z" fill="#F77A55"/>
<path d="M51.5475 5.67774L47.6193 5.10684L45.8633 1.54685C45.8153 1.44938 45.7364 1.37048 45.639 1.32252C45.3945 1.20184 45.0975 1.3024 44.9752 1.54685L43.2192 5.10684L39.291 5.67774C39.1827 5.69321 39.0837 5.74426 39.0079 5.82162C38.9162 5.91582 38.8657 6.04255 38.8675 6.17397C38.8692 6.30539 38.9231 6.43074 39.0172 6.52248L41.8593 9.29342L41.1878 13.2062C41.1721 13.2972 41.1821 13.3908 41.2169 13.4764C41.2516 13.562 41.3097 13.6361 41.3844 13.6904C41.4592 13.7447 41.5476 13.7769 41.6397 13.7835C41.7319 13.79 41.824 13.7707 41.9057 13.7275L45.4193 11.8802L48.9328 13.7275C49.0288 13.7786 49.1402 13.7956 49.2469 13.7771C49.5161 13.7306 49.6971 13.4754 49.6507 13.2062L48.9793 9.29342L51.8214 6.52248C51.8987 6.44667 51.9498 6.34765 51.9652 6.23935C52.007 5.9686 51.8183 5.71796 51.5475 5.67774Z" fill="#F77A55"/>
<path d="M70.0307 5.67774L66.1025 5.10684L64.3465 1.54685C64.2985 1.44938 64.2196 1.37048 64.1221 1.32252C63.8777 1.20184 63.5806 1.3024 63.4584 1.54685L61.7024 5.10684L57.7742 5.67774C57.6659 5.69321 57.5669 5.74426 57.491 5.82162C57.3994 5.91582 57.3489 6.04255 57.3506 6.17397C57.3524 6.30539 57.4062 6.43074 57.5003 6.52248L60.3424 9.29342L59.671 13.2062C59.6552 13.2972 59.6653 13.3908 59.7 13.4764C59.7348 13.562 59.7928 13.6361 59.8676 13.6904C59.9423 13.7447 60.0308 13.7769 60.1229 13.7835C60.215 13.79 60.3072 13.7707 60.3888 13.7275L63.9024 11.8802L67.416 13.7275C67.5119 13.7786 67.6233 13.7956 67.7301 13.7771C67.9993 13.7306 68.1803 13.4754 68.1339 13.2062L67.4624 9.29342L70.3045 6.52248C70.3819 6.44667 70.4329 6.34765 70.4484 6.23935C70.4902 5.9686 70.3014 5.71796 70.0307 5.67774Z" fill="#F77A55"/>
<path d="M88.5141 5.67774L84.5859 5.10684L82.8299 1.54685C82.7819 1.44938 82.703 1.37048 82.6055 1.32252C82.3611 1.20184 82.064 1.3024 81.9418 1.54685L80.1858 5.10684L76.2576 5.67774C76.1493 5.69321 76.0503 5.74426 75.9744 5.82162C75.8828 5.91582 75.8323 6.04255 75.834 6.17397C75.8358 6.30539 75.8896 6.43074 75.9837 6.52248L78.8258 9.29342L78.1544 13.2062C78.1386 13.2972 78.1487 13.3908 78.1834 13.4764C78.2182 13.562 78.2762 13.6361 78.351 13.6904C78.4257 13.7447 78.5142 13.7769 78.6063 13.7835C78.6984 13.79 78.7906 13.7707 78.8722 13.7275L82.3858 11.8802L85.8994 13.7275C85.9953 13.7786 86.1067 13.7956 86.2135 13.7771C86.4827 13.7306 86.6637 13.4754 86.6173 13.2062L85.9458 9.29342L88.7879 6.52248C88.8653 6.44667 88.9163 6.34765 88.9318 6.23935C88.9736 5.9686 88.7848 5.71796 88.5141 5.67774ZM84.7499 8.90354L85.3084 12.1572L82.3858 10.6224L79.4633 12.1587L80.0218 8.90508L77.6577 6.59984L80.9253 6.12486L82.3858 3.16517L83.8463 6.12486L87.1139 6.59984L84.7499 8.90354Z" fill="#F77A55"/>
</svg>
