<svg width="91" height="17" viewBox="0 0 91 17" fill="none" xmlns="http://www.w3.org/2000/svg">
<path d="M14.581 6.14942L10.6528 5.57852L8.89675 2.01853C8.84878 1.92106 8.76988 1.84216 8.67241 1.7942C8.42796 1.67352 8.13091 1.77408 8.00868 2.01853L6.25267 5.57852L2.32446 6.14942C2.21616 6.16489 2.11715 6.21594 2.04134 6.2933C1.94969 6.3875 1.89918 6.51423 1.90092 6.64565C1.90266 6.77707 1.95651 6.90242 2.05062 6.99416L4.89273 9.7651L4.22127 13.6778C4.20552 13.7689 4.21559 13.8625 4.25034 13.948C4.28509 14.0336 4.34312 14.1078 4.41786 14.1621C4.4926 14.2163 4.58105 14.2486 4.67319 14.2552C4.76532 14.2617 4.85746 14.2424 4.93914 14.1992L8.45271 12.3519L11.9663 14.1992C12.0622 14.2503 12.1736 14.2673 12.2804 14.2487C12.5496 14.2023 12.7306 13.947 12.6842 13.6778L12.0127 9.7651L14.8548 6.99416C14.9322 6.91835 14.9832 6.81933 14.9987 6.71103C15.0405 6.44028 14.8517 6.18964 14.581 6.14942Z" fill="#F77A55"/>
<path d="M33.0641 6.14942L29.1359 5.57852L27.3799 2.01853C27.3319 1.92106 27.253 1.84216 27.1556 1.7942C26.9111 1.67352 26.6141 1.77408 26.4918 2.01853L24.7358 5.57852L20.8076 6.14942C20.6993 6.16489 20.6003 6.21594 20.5245 6.2933C20.4328 6.3875 20.3823 6.51423 20.3841 6.64565C20.3858 6.77707 20.4397 6.90242 20.5338 6.99416L23.3759 9.7651L22.7044 13.6778C22.6887 13.7689 22.6987 13.8625 22.7335 13.948C22.7682 14.0336 22.8263 14.1078 22.901 14.1621C22.9758 14.2163 23.0642 14.2486 23.1563 14.2552C23.2485 14.2617 23.3406 14.2424 23.4223 14.1992L26.9359 12.3519L30.4494 14.1992C30.5454 14.2503 30.6568 14.2673 30.7635 14.2487C31.0327 14.2023 31.2137 13.947 31.1673 13.6778L30.4959 9.7651L33.338 6.99416C33.4153 6.91835 33.4664 6.81933 33.4818 6.71103C33.5236 6.44028 33.3349 6.18964 33.0641 6.14942Z" fill="#F77A55"/>
<path d="M51.5475 6.14942L47.6193 5.57852L45.8633 2.01853C45.8153 1.92106 45.7364 1.84216 45.639 1.7942C45.3945 1.67352 45.0975 1.77408 44.9752 2.01853L43.2192 5.57852L39.291 6.14942C39.1827 6.16489 39.0837 6.21594 39.0079 6.2933C38.9162 6.3875 38.8657 6.51423 38.8675 6.64565C38.8692 6.77707 38.9231 6.90242 39.0172 6.99416L41.8593 9.7651L41.1878 13.6778C41.1721 13.7689 41.1821 13.8625 41.2169 13.948C41.2516 14.0336 41.3097 14.1078 41.3844 14.1621C41.4592 14.2163 41.5476 14.2486 41.6397 14.2552C41.7319 14.2617 41.824 14.2424 41.9057 14.1992L45.4193 12.3519L48.9328 14.1992C49.0288 14.2503 49.1402 14.2673 49.2469 14.2487C49.5161 14.2023 49.6971 13.947 49.6507 13.6778L48.9793 9.7651L51.8214 6.99416C51.8987 6.91835 51.9498 6.81933 51.9652 6.71103C52.007 6.44028 51.8183 6.18964 51.5475 6.14942Z" fill="#F77A55"/>
<path fill-rule="evenodd" clip-rule="evenodd" d="M59.5595 14.3508C59.7338 14.6763 60.0738 14.8796 60.4434 14.8789C60.5992 14.8796 60.7537 14.8433 60.8923 14.7733L63.8972 13.2022C63.9051 13.1976 63.9143 13.195 63.9236 13.1956L66.9079 14.7535C67.0525 14.8314 67.2142 14.8717 67.3779 14.871C67.4301 14.871 67.4829 14.8664 67.5344 14.8591C68.0717 14.7713 68.4388 14.2683 68.3595 13.7303L67.7786 10.4232C67.7753 10.4183 67.7744 10.4181 67.7741 10.4175C67.774 10.4173 67.774 10.4171 67.774 10.4166C67.774 10.4146 67.7786 10.41 67.7786 10.41L70.2013 8.06654C70.559 7.7213 70.6046 7.16482 70.3069 6.76611C70.1452 6.55751 69.9082 6.42021 69.6468 6.38324L66.3053 5.90136C66.2993 5.90136 66.2927 5.89476 66.2861 5.88816L64.7936 2.89123C64.6253 2.55259 64.2807 2.33871 63.9024 2.33673C63.7929 2.33673 63.6833 2.35389 63.579 2.38954C63.3288 2.4747 63.1222 2.65425 63.0047 2.89123L61.5141 5.87958C61.5141 5.89344 61.5003 5.89938 61.4871 5.89938L58.1535 6.38126C57.9495 6.41559 57.7594 6.50669 57.6056 6.64531C57.4108 6.83608 57.3013 7.09815 57.3013 7.37144C57.3019 7.63086 57.4062 7.87907 57.5917 8.05994L60.0342 10.41C60.0394 10.4152 60.0414 10.4225 60.0414 10.4298L59.4532 13.7237C59.4183 13.9389 59.4559 14.1594 59.5595 14.3508ZM63.8832 3.30513L63.8898 3.30051H63.9023L63.9082 3.30645C63.9142 3.30645 63.9195 3.30777 63.9241 3.31173C63.9281 3.31569 63.93 3.32098 63.9294 3.32692L65.4212 6.30998C65.5645 6.60373 65.843 6.80837 66.1665 6.85788L69.508 7.34372C69.514 7.34372 69.5199 7.34504 69.5252 7.34768C69.5285 7.34834 69.5311 7.34834 69.5344 7.34768L69.541 7.35363L69.5344 7.36815L67.1118 9.7175C66.8708 9.94326 66.7633 10.2773 66.8273 10.6014L67.4088 13.8894L67.3956 13.902H67.3818C67.3791 13.9033 67.3765 13.9033 67.3739 13.902C67.3673 13.9013 67.3607 13.8987 67.3547 13.8954H67.3488L64.3783 12.3441C64.2357 12.2702 64.0772 12.2306 63.9162 12.2312C63.7505 12.2312 63.5868 12.2728 63.4402 12.3507L60.4506 13.9185C60.4473 13.9191 60.4433 13.9191 60.44 13.9185C60.4261 13.9185 60.4143 13.9092 60.411 13.896V13.8828L60.9919 10.5955C61.046 10.274 60.9404 9.9459 60.708 9.7175L58.2656 7.37409C58.2649 7.36419 58.2662 7.35561 58.2715 7.34702L58.3118 7.33382L61.6322 6.85788C61.9556 6.80771 62.2335 6.60373 62.3774 6.30998L63.87 3.31966C63.8733 3.31371 63.8772 3.30843 63.8832 3.30513Z" fill="#F77A55"/>
<path d="M88.5141 6.14942L84.5859 5.57852L82.8299 2.01853C82.7819 1.92106 82.703 1.84216 82.6055 1.7942C82.3611 1.67352 82.064 1.77408 81.9418 2.01853L80.1858 5.57852L76.2576 6.14942C76.1493 6.16489 76.0503 6.21594 75.9744 6.2933C75.8828 6.3875 75.8323 6.51423 75.834 6.64565C75.8358 6.77707 75.8896 6.90242 75.9837 6.99416L78.8258 9.7651L78.1544 13.6778C78.1386 13.7689 78.1487 13.8625 78.1834 13.948C78.2182 14.0336 78.2762 14.1078 78.351 14.1621C78.4257 14.2163 78.5142 14.2486 78.6063 14.2552C78.6984 14.2617 78.7906 14.2424 78.8722 14.1992L82.3858 12.3519L85.8994 14.1992C85.9953 14.2503 86.1067 14.2673 86.2135 14.2487C86.4827 14.2023 86.6637 13.947 86.6173 13.6778L85.9458 9.7651L88.7879 6.99416C88.8653 6.91835 88.9163 6.81933 88.9318 6.71103C88.9736 6.44028 88.7848 6.18964 88.5141 6.14942ZM84.7499 9.37522L85.3084 12.6289L82.3858 11.0941L79.4633 12.6304L80.0218 9.37676L77.6577 7.07152L80.9253 6.59654L82.3858 3.63685L83.8463 6.59654L87.1139 7.07152L84.7499 9.37522Z" fill="#F77A55"/>
</svg>
