<svg width="14" height="14" viewBox="0 0 14 14" fill="none" xmlns="http://www.w3.org/2000/svg">
<path fill-rule="evenodd" clip-rule="evenodd" d="M2.84273 12.9296C3.017 13.2551 3.35696 13.4584 3.72663 13.4577C3.88241 13.4584 4.03688 13.4221 4.17551 13.3521L7.18035 11.781C7.18828 11.7764 7.19752 11.7738 7.20676 11.7744L10.1911 13.3323C10.3357 13.4102 10.4974 13.4505 10.6611 13.4498C10.7133 13.4498 10.7661 13.4452 10.8176 13.4379C11.3549 13.3501 11.722 12.8471 11.6427 12.3091L11.0618 9.00195C11.0585 8.99714 11.0576 8.99689 11.0573 8.99634C11.0572 8.99613 11.0572 8.99589 11.0572 8.99535C11.0572 8.99337 11.0618 8.98875 11.0618 8.98875L13.4845 6.64534C13.8422 6.3001 13.8878 5.74362 13.5901 5.34491C13.4284 5.13631 13.1914 4.99901 12.93 4.96204L9.58846 4.48016C9.58252 4.48016 9.57592 4.47355 9.56931 4.46695L8.07679 1.47003C7.90846 1.13139 7.56388 0.917508 7.18564 0.915527C7.07606 0.915527 6.96648 0.93269 6.86218 0.968337C6.61199 1.05349 6.40538 1.23304 6.28788 1.47003L4.79733 4.45837C4.79733 4.47223 4.78347 4.47817 4.77027 4.47817L1.43668 4.96006C1.23271 4.99439 1.04259 5.08548 0.888786 5.22411C0.694052 5.41488 0.584473 5.67695 0.584473 5.95023C0.585133 6.20966 0.689431 6.45786 0.874924 6.63874L3.31735 8.98875C3.32263 8.99403 3.32462 9.00129 3.32462 9.00855L2.73645 12.3025C2.70147 12.5177 2.73909 12.7382 2.84273 12.9296ZM7.16653 1.88379L7.17313 1.87917H7.18567L7.19161 1.88511C7.19755 1.88511 7.20283 1.88643 7.20745 1.89039C7.21142 1.89435 7.2134 1.89963 7.21274 1.90558L8.7046 4.88864C8.84784 5.18239 9.12641 5.38703 9.44987 5.43654L12.7914 5.92238C12.7973 5.92238 12.8033 5.9237 12.8085 5.92634C12.8118 5.927 12.8145 5.927 12.8178 5.92634L12.8244 5.93228L12.8178 5.94681L10.3952 8.29616C10.1542 8.52192 10.0466 8.85594 10.1106 9.18006L10.6922 12.4681L10.679 12.4806H10.6651C10.6625 12.482 10.6599 12.482 10.6572 12.4806C10.6506 12.48 10.644 12.4773 10.6381 12.474H10.6321L7.66161 10.9228C7.51903 10.8488 7.3606 10.8092 7.19953 10.8099C7.03384 10.8099 6.87014 10.8515 6.72359 10.9294L3.73392 12.4971C3.73062 12.4978 3.72666 12.4978 3.72336 12.4971C3.7095 12.4971 3.69762 12.4879 3.69432 12.4747V12.4615L4.27522 9.17412C4.32935 8.85264 4.22373 8.52456 3.99137 8.29616L1.54894 5.95275C1.54828 5.94285 1.5496 5.93427 1.55488 5.92568L1.59515 5.91248L4.91553 5.43654C5.23899 5.38637 5.5169 5.18239 5.6608 4.88864L7.15333 1.89831C7.15663 1.89237 7.16059 1.88709 7.16653 1.88379Z" fill="#F77A55"/>
</svg>
