<svg width="91" height="17" viewBox="0 0 91 17" fill="none" xmlns="http://www.w3.org/2000/svg">
<path d="M14.581 5.62158L10.6528 5.05069L8.89675 1.4907C8.84878 1.39323 8.76988 1.31432 8.67241 1.26636C8.42796 1.14569 8.13091 1.24625 8.00868 1.4907L6.25267 5.05069L2.32446 5.62158C2.21616 5.63705 2.11715 5.68811 2.04134 5.76547C1.94969 5.85967 1.89918 5.9864 1.90092 6.11782C1.90266 6.24924 1.95651 6.37459 2.05062 6.46633L4.89273 9.23727L4.22127 13.15C4.20552 13.241 4.21559 13.3346 4.25034 13.4202C4.28509 13.5058 4.34312 13.5799 4.41786 13.6342C4.4926 13.6885 4.58105 13.7208 4.67319 13.7273C4.76532 13.7339 4.85746 13.7145 4.93914 13.6714L8.45271 11.8241L11.9663 13.6714C12.0622 13.7224 12.1736 13.7395 12.2804 13.7209C12.5496 13.6745 12.7306 13.4192 12.6842 13.15L12.0127 9.23727L14.8548 6.46633C14.9322 6.39052 14.9832 6.2915 14.9987 6.1832C15.0405 5.91245 14.8517 5.66181 14.581 5.62158Z" fill="#F77A55"/>
<path d="M33.0641 5.62158L29.1359 5.05069L27.3799 1.4907C27.3319 1.39323 27.253 1.31432 27.1556 1.26636C26.9111 1.14569 26.6141 1.24625 26.4918 1.4907L24.7358 5.05069L20.8076 5.62158C20.6993 5.63705 20.6003 5.68811 20.5245 5.76547C20.4328 5.85967 20.3823 5.9864 20.3841 6.11782C20.3858 6.24924 20.4397 6.37459 20.5338 6.46633L23.3759 9.23727L22.7044 13.15C22.6887 13.241 22.6987 13.3346 22.7335 13.4202C22.7682 13.5058 22.8263 13.5799 22.901 13.6342C22.9758 13.6885 23.0642 13.7208 23.1563 13.7273C23.2485 13.7339 23.3406 13.7145 23.4223 13.6714L26.9359 11.8241L30.4494 13.6714C30.5454 13.7224 30.6568 13.7395 30.7635 13.7209C31.0327 13.6745 31.2137 13.4192 31.1673 13.15L30.4959 9.23727L33.338 6.46633C33.4153 6.39052 33.4664 6.2915 33.4818 6.1832C33.5236 5.91245 33.3349 5.66181 33.0641 5.62158Z" fill="#F77A55"/>
<path fill-rule="evenodd" clip-rule="evenodd" d="M41.0764 13.823C41.2506 14.1485 41.5906 14.3518 41.9603 14.3511C42.1161 14.3518 42.2705 14.3155 42.4091 14.2455L45.414 12.6744C45.4219 12.6698 45.4312 12.6672 45.4404 12.6678L48.4248 14.2257C48.5694 14.3036 48.7311 14.3438 48.8948 14.3432C48.9469 14.3432 48.9997 14.3386 49.0512 14.3313C49.5886 14.2435 49.9556 13.7405 49.8764 13.2025L49.2955 9.89532C49.2921 9.89051 49.2912 9.89026 49.291 9.88971C49.2909 9.8895 49.2909 9.88926 49.2909 9.88872C49.2909 9.88674 49.2955 9.88212 49.2955 9.88212L51.7181 7.53871C52.0759 7.19347 52.1214 6.63699 51.8237 6.23828C51.662 6.02968 51.425 5.89238 51.1636 5.85541L47.8221 5.37353C47.8162 5.37353 47.8096 5.36693 47.803 5.36032L46.3104 2.3634C46.1421 2.02476 45.7975 1.81088 45.4193 1.8089C45.3097 1.8089 45.2001 1.82606 45.0958 1.86171C44.8456 1.94686 44.639 2.12641 44.5215 2.3634L43.031 5.35174C43.031 5.36561 43.0171 5.37155 43.0039 5.37155L39.6703 5.85343C39.4663 5.88776 39.2762 5.97885 39.1224 6.11748C38.9277 6.30825 38.8181 6.57032 38.8181 6.84361C38.8188 7.10303 38.9231 7.35123 39.1086 7.53211L41.551 9.88212C41.5563 9.8874 41.5583 9.89466 41.5583 9.90192L40.9701 13.1959C40.9351 13.4111 40.9727 13.6316 41.0764 13.823ZM45.4 2.77728L45.4066 2.77265H45.4192L45.4251 2.7786C45.431 2.7786 45.4363 2.77992 45.4409 2.78388C45.4449 2.78784 45.4469 2.79312 45.4462 2.79906L46.9381 5.78212C47.0813 6.07588 47.3599 6.28051 47.6834 6.33002L51.0249 6.81587C51.0308 6.81587 51.0367 6.81719 51.042 6.81983C51.0453 6.82049 51.048 6.82049 51.0513 6.81983L51.0579 6.82577L51.0513 6.84029L48.6286 9.18964C48.3877 9.4154 48.2801 9.74942 48.3441 10.0735L48.9257 13.3616L48.9125 13.3741H48.8986C48.896 13.3754 48.8933 13.3754 48.8907 13.3741C48.8841 13.3735 48.8775 13.3708 48.8716 13.3675H48.8656L45.8951 11.8162C45.7525 11.7423 45.5941 11.7027 45.433 11.7034C45.2673 11.7034 45.1036 11.745 44.9571 11.8228L41.9674 13.3906C41.9641 13.3913 41.9601 13.3913 41.9568 13.3906C41.943 13.3906 41.9311 13.3814 41.9278 13.3682V13.355L42.5087 10.0676C42.5628 9.74612 42.4572 9.41804 42.2248 9.18964L39.7824 6.84623C39.7818 6.83633 39.7831 6.82775 39.7884 6.81917L39.8286 6.80596L43.149 6.33002C43.4725 6.27985 43.7504 6.07588 43.8943 5.78212L45.3868 2.7918C45.3901 2.78586 45.3941 2.78058 45.4 2.77728Z" fill="#F77A55"/>
<path fill-rule="evenodd" clip-rule="evenodd" d="M59.5595 13.823C59.7338 14.1485 60.0738 14.3518 60.4434 14.3511C60.5992 14.3518 60.7537 14.3155 60.8923 14.2455L63.8972 12.6744C63.9051 12.6698 63.9143 12.6672 63.9236 12.6678L66.9079 14.2257C67.0525 14.3036 67.2142 14.3438 67.3779 14.3432C67.4301 14.3432 67.4829 14.3386 67.5344 14.3313C68.0717 14.2435 68.4388 13.7405 68.3595 13.2025L67.7786 9.89532C67.7753 9.89051 67.7744 9.89026 67.7741 9.88971C67.774 9.8895 67.774 9.88926 67.774 9.88872C67.774 9.88674 67.7786 9.88212 67.7786 9.88212L70.2013 7.53871C70.559 7.19347 70.6046 6.63699 70.3069 6.23828C70.1452 6.02968 69.9082 5.89238 69.6468 5.85541L66.3053 5.37353C66.2993 5.37353 66.2927 5.36693 66.2861 5.36032L64.7936 2.3634C64.6253 2.02476 64.2807 1.81088 63.9024 1.8089C63.7929 1.8089 63.6833 1.82606 63.579 1.86171C63.3288 1.94686 63.1222 2.12641 63.0047 2.3634L61.5141 5.35174C61.5141 5.36561 61.5003 5.37155 61.4871 5.37155L58.1535 5.85343C57.9495 5.88776 57.7594 5.97885 57.6056 6.11748C57.4108 6.30825 57.3013 6.57032 57.3013 6.84361C57.3019 7.10303 57.4062 7.35123 57.5917 7.53211L60.0342 9.88212C60.0394 9.8874 60.0414 9.89466 60.0414 9.90192L59.4532 13.1959C59.4183 13.4111 59.4559 13.6316 59.5595 13.823ZM63.8832 2.77728L63.8898 2.77265H63.9023L63.9082 2.7786C63.9142 2.7786 63.9195 2.77992 63.9241 2.78388C63.9281 2.78784 63.93 2.79312 63.9294 2.79906L65.4212 5.78212C65.5645 6.07588 65.843 6.28051 66.1665 6.33002L69.508 6.81587C69.514 6.81587 69.5199 6.81719 69.5252 6.81983C69.5285 6.82049 69.5311 6.82049 69.5344 6.81983L69.541 6.82577L69.5344 6.84029L67.1118 9.18964C66.8708 9.4154 66.7633 9.74942 66.8273 10.0735L67.4088 13.3616L67.3956 13.3741H67.3818C67.3791 13.3754 67.3765 13.3754 67.3739 13.3741C67.3673 13.3735 67.3607 13.3708 67.3547 13.3675H67.3488L64.3783 11.8162C64.2357 11.7423 64.0772 11.7027 63.9162 11.7034C63.7505 11.7034 63.5868 11.745 63.4402 11.8228L60.4506 13.3906C60.4473 13.3913 60.4433 13.3913 60.44 13.3906C60.4261 13.3906 60.4143 13.3814 60.411 13.3682V13.355L60.9919 10.0676C61.046 9.74612 60.9404 9.41804 60.708 9.18964L58.2656 6.84623C58.2649 6.83633 58.2662 6.82775 58.2715 6.81917L58.3118 6.80596L61.6322 6.33002C61.9556 6.27985 62.2335 6.07588 62.3774 5.78212L63.87 2.7918C63.8733 2.78586 63.8772 2.78058 63.8832 2.77728Z" fill="#F77A55"/>
<path d="M88.5141 5.62158L84.5859 5.05069L82.8299 1.4907C82.7819 1.39323 82.703 1.31432 82.6055 1.26636C82.3611 1.14569 82.064 1.24625 81.9418 1.4907L80.1858 5.05069L76.2576 5.62158C76.1493 5.63705 76.0503 5.68811 75.9744 5.76547C75.8828 5.85967 75.8323 5.9864 75.834 6.11782C75.8358 6.24924 75.8896 6.37459 75.9837 6.46633L78.8258 9.23727L78.1544 13.15C78.1386 13.241 78.1487 13.3346 78.1834 13.4202C78.2182 13.5058 78.2762 13.5799 78.351 13.6342C78.4257 13.6885 78.5142 13.7208 78.6063 13.7273C78.6984 13.7339 78.7906 13.7145 78.8722 13.6714L82.3858 11.8241L85.8994 13.6714C85.9953 13.7224 86.1067 13.7395 86.2135 13.7209C86.4827 13.6745 86.6637 13.4192 86.6173 13.15L85.9458 9.23727L88.7879 6.46633C88.8653 6.39052 88.9163 6.2915 88.9318 6.1832C88.9736 5.91245 88.7848 5.66181 88.5141 5.62158ZM84.7499 8.84738L85.3084 12.101L82.3858 10.5663L79.4633 12.1026L80.0218 8.84893L77.6577 6.54368L80.9253 6.06871L82.3858 3.10902L83.8463 6.06871L87.1139 6.54368L84.7499 8.84738Z" fill="#F77A55"/>
</svg>
