<svg width="91" height="17" viewBox="0 0 91 17" fill="none" xmlns="http://www.w3.org/2000/svg">
<path d="M14.581 6.09229L10.6528 5.52139L8.89675 1.9614C8.84878 1.86393 8.76988 1.78503 8.67241 1.73707C8.42796 1.61639 8.13091 1.71695 8.00868 1.9614L6.25267 5.52139L2.32446 6.09229C2.21616 6.10776 2.11715 6.15881 2.04134 6.23617C1.94969 6.33037 1.89918 6.4571 1.90092 6.58852C1.90266 6.71994 1.95651 6.84529 2.05062 6.93703L4.89273 9.70797L4.22127 13.6207C4.20552 13.7117 4.21559 13.8053 4.25034 13.8909C4.28509 13.9765 4.34312 14.0506 4.41786 14.1049C4.4926 14.1592 4.58105 14.1915 4.67319 14.198C4.76532 14.2046 4.85746 14.1852 4.93914 14.1421L8.45271 12.2948L11.9663 14.1421C12.0622 14.1931 12.1736 14.2102 12.2804 14.1916C12.5496 14.1452 12.7306 13.8899 12.6842 13.6207L12.0127 9.70797L14.8548 6.93703C14.9322 6.86122 14.9832 6.7622 14.9987 6.6539C15.0405 6.38315 14.8517 6.13251 14.581 6.09229Z" fill="#F77A55"/>
<path fill-rule="evenodd" clip-rule="evenodd" d="M22.593 14.2937C22.7672 14.6192 23.1072 14.8225 23.4769 14.8218C23.6327 14.8225 23.7871 14.7862 23.9257 14.7162L26.9306 13.1451C26.9385 13.1405 26.9478 13.1379 26.957 13.1385L29.9414 14.6964C30.086 14.7743 30.2477 14.8146 30.4114 14.8139C30.4635 14.8139 30.5163 14.8093 30.5678 14.802C31.1052 14.7142 31.4722 14.2112 31.393 13.6732L30.8121 10.366C30.8087 10.3612 30.8078 10.361 30.8076 10.3604C30.8075 10.3602 30.8075 10.36 30.8075 10.3594C30.8075 10.3574 30.8121 10.3528 30.8121 10.3528L33.2347 8.00941C33.5925 7.66417 33.638 7.10769 33.3403 6.70898C33.1786 6.50039 32.9416 6.36308 32.6802 6.32611L29.3387 5.84423C29.3328 5.84423 29.3262 5.83763 29.3196 5.83103L27.827 2.8341C27.6587 2.49546 27.3141 2.28158 26.9359 2.2796C26.8263 2.2796 26.7167 2.29677 26.6124 2.33241C26.3622 2.41757 26.1556 2.59712 26.0381 2.8341L24.5476 5.82245C24.5476 5.83631 24.5337 5.84225 24.5205 5.84225L21.1869 6.32413C20.983 6.35846 20.7928 6.44956 20.639 6.58818C20.4443 6.77895 20.3347 7.04102 20.3347 7.31431C20.3354 7.57373 20.4397 7.82194 20.6252 8.00281L23.0676 10.3528C23.0729 10.3581 23.0749 10.3654 23.0749 10.3726L22.4867 13.6666C22.4517 13.8818 22.4893 14.1023 22.593 14.2937ZM26.9166 3.24798L26.9232 3.24336H26.9358L26.9417 3.2493C26.9476 3.2493 26.9529 3.25062 26.9575 3.25458C26.9615 3.25854 26.9635 3.26382 26.9628 3.26976L28.4547 6.25283C28.5979 6.54658 28.8765 6.75122 29.2 6.80072L32.5415 7.28657C32.5474 7.28657 32.5533 7.28789 32.5586 7.29053C32.5619 7.29119 32.5646 7.29119 32.5679 7.29053L32.5745 7.29647L32.5679 7.31099L30.1452 9.66035C29.9043 9.88611 29.7967 10.2201 29.8607 10.5442L30.4423 13.8323L30.4291 13.8448H30.4152C30.4126 13.8461 30.4099 13.8461 30.4073 13.8448C30.4007 13.8442 30.3941 13.8415 30.3882 13.8382H30.3822L27.4117 12.287C27.2691 12.213 27.1107 12.1734 26.9496 12.1741C26.7839 12.1741 26.6202 12.2157 26.4737 12.2936L23.484 13.8613C23.4807 13.862 23.4767 13.862 23.4734 13.8613C23.4596 13.8613 23.4477 13.8521 23.4444 13.8389V13.8257L24.0253 10.5383C24.0794 10.2168 23.9738 9.88875 23.7415 9.66035L21.299 7.31694C21.2984 7.30703 21.2997 7.29845 21.305 7.28987L21.3452 7.27667L24.6656 6.80072C24.9891 6.75056 25.267 6.54658 25.4109 6.25283L26.9034 3.2625C26.9067 3.25656 26.9107 3.25128 26.9166 3.24798Z" fill="#F77A55"/>
<path fill-rule="evenodd" clip-rule="evenodd" d="M41.0764 14.2937C41.2506 14.6192 41.5906 14.8225 41.9603 14.8218C42.1161 14.8225 42.2705 14.7862 42.4091 14.7162L45.414 13.1451C45.4219 13.1405 45.4312 13.1379 45.4404 13.1385L48.4248 14.6964C48.5694 14.7743 48.7311 14.8146 48.8948 14.8139C48.9469 14.8139 48.9997 14.8093 49.0512 14.802C49.5886 14.7142 49.9556 14.2112 49.8764 13.6732L49.2955 10.366C49.2921 10.3612 49.2912 10.361 49.291 10.3604C49.2909 10.3602 49.2909 10.36 49.2909 10.3594C49.2909 10.3574 49.2955 10.3528 49.2955 10.3528L51.7181 8.00941C52.0759 7.66417 52.1214 7.10769 51.8237 6.70898C51.662 6.50039 51.425 6.36308 51.1636 6.32611L47.8221 5.84423C47.8162 5.84423 47.8096 5.83763 47.803 5.83103L46.3104 2.8341C46.1421 2.49546 45.7975 2.28158 45.4193 2.2796C45.3097 2.2796 45.2001 2.29677 45.0958 2.33241C44.8456 2.41757 44.639 2.59712 44.5215 2.8341L43.031 5.82245C43.031 5.83631 43.0171 5.84225 43.0039 5.84225L39.6703 6.32413C39.4663 6.35846 39.2762 6.44956 39.1224 6.58818C38.9277 6.77895 38.8181 7.04102 38.8181 7.31431C38.8188 7.57373 38.9231 7.82194 39.1086 8.00281L41.551 10.3528C41.5563 10.3581 41.5583 10.3654 41.5583 10.3726L40.9701 13.6666C40.9351 13.8818 40.9727 14.1023 41.0764 14.2937ZM45.4 3.24798L45.4066 3.24336H45.4192L45.4251 3.2493C45.431 3.2493 45.4363 3.25062 45.4409 3.25458C45.4449 3.25854 45.4469 3.26382 45.4462 3.26976L46.9381 6.25283C47.0813 6.54658 47.3599 6.75122 47.6834 6.80072L51.0249 7.28657C51.0308 7.28657 51.0367 7.28789 51.042 7.29053C51.0453 7.29119 51.048 7.29119 51.0513 7.29053L51.0579 7.29647L51.0513 7.31099L48.6286 9.66035C48.3877 9.88611 48.2801 10.2201 48.3441 10.5442L48.9257 13.8323L48.9125 13.8448H48.8986C48.896 13.8461 48.8933 13.8461 48.8907 13.8448C48.8841 13.8442 48.8775 13.8415 48.8716 13.8382H48.8656L45.8951 12.287C45.7525 12.213 45.5941 12.1734 45.433 12.1741C45.2673 12.1741 45.1036 12.2157 44.9571 12.2936L41.9674 13.8613C41.9641 13.862 41.9601 13.862 41.9568 13.8613C41.943 13.8613 41.9311 13.8521 41.9278 13.8389V13.8257L42.5087 10.5383C42.5628 10.2168 42.4572 9.88875 42.2248 9.66035L39.7824 7.31694C39.7818 7.30703 39.7831 7.29845 39.7884 7.28987L39.8286 7.27667L43.149 6.80072C43.4725 6.75056 43.7504 6.54658 43.8943 6.25283L45.3868 3.2625C45.3901 3.25656 45.3941 3.25128 45.4 3.24798Z" fill="#F77A55"/>
<path fill-rule="evenodd" clip-rule="evenodd" d="M59.5595 14.2937C59.7338 14.6192 60.0738 14.8225 60.4434 14.8218C60.5992 14.8225 60.7537 14.7862 60.8923 14.7162L63.8972 13.1451C63.9051 13.1405 63.9143 13.1379 63.9236 13.1385L66.9079 14.6964C67.0525 14.7743 67.2142 14.8146 67.3779 14.8139C67.4301 14.8139 67.4829 14.8093 67.5344 14.802C68.0717 14.7142 68.4388 14.2112 68.3595 13.6732L67.7786 10.366C67.7753 10.3612 67.7744 10.361 67.7741 10.3604C67.774 10.3602 67.774 10.36 67.774 10.3594C67.774 10.3574 67.7786 10.3528 67.7786 10.3528L70.2013 8.00941C70.559 7.66417 70.6046 7.10769 70.3069 6.70898C70.1452 6.50039 69.9082 6.36308 69.6468 6.32611L66.3053 5.84423C66.2993 5.84423 66.2927 5.83763 66.2861 5.83103L64.7936 2.8341C64.6253 2.49546 64.2807 2.28158 63.9024 2.2796C63.7929 2.2796 63.6833 2.29677 63.579 2.33241C63.3288 2.41757 63.1222 2.59712 63.0047 2.8341L61.5141 5.82245C61.5141 5.83631 61.5003 5.84225 61.4871 5.84225L58.1535 6.32413C57.9495 6.35846 57.7594 6.44956 57.6056 6.58818C57.4108 6.77895 57.3013 7.04102 57.3013 7.31431C57.3019 7.57373 57.4062 7.82194 57.5917 8.00281L60.0342 10.3528C60.0394 10.3581 60.0414 10.3654 60.0414 10.3726L59.4532 13.6666C59.4183 13.8818 59.4559 14.1023 59.5595 14.2937ZM63.8832 3.24798L63.8898 3.24336H63.9023L63.9082 3.2493C63.9142 3.2493 63.9195 3.25062 63.9241 3.25458C63.9281 3.25854 63.93 3.26382 63.9294 3.26976L65.4212 6.25283C65.5645 6.54658 65.843 6.75122 66.1665 6.80072L69.508 7.28657C69.514 7.28657 69.5199 7.28789 69.5252 7.29053C69.5285 7.29119 69.5311 7.29119 69.5344 7.29053L69.541 7.29647L69.5344 7.31099L67.1118 9.66035C66.8708 9.88611 66.7633 10.2201 66.8273 10.5442L67.4088 13.8323L67.3956 13.8448H67.3818C67.3791 13.8461 67.3765 13.8461 67.3739 13.8448C67.3673 13.8442 67.3607 13.8415 67.3547 13.8382H67.3488L64.3783 12.287C64.2357 12.213 64.0772 12.1734 63.9162 12.1741C63.7505 12.1741 63.5868 12.2157 63.4402 12.2936L60.4506 13.8613C60.4473 13.862 60.4433 13.862 60.44 13.8613C60.4261 13.8613 60.4143 13.8521 60.411 13.8389V13.8257L60.9919 10.5383C61.046 10.2168 60.9404 9.88875 60.708 9.66035L58.2656 7.31694C58.2649 7.30703 58.2662 7.29845 58.2715 7.28987L58.3118 7.27667L61.6322 6.80072C61.9556 6.75056 62.2335 6.54658 62.3774 6.25283L63.87 3.2625C63.8733 3.25656 63.8772 3.25128 63.8832 3.24798Z" fill="#F77A55"/>
<path d="M88.5141 6.09229L84.5859 5.52139L82.8299 1.9614C82.7819 1.86393 82.703 1.78503 82.6055 1.73707C82.3611 1.61639 82.064 1.71695 81.9418 1.9614L80.1858 5.52139L76.2576 6.09229C76.1493 6.10776 76.0503 6.15881 75.9744 6.23617C75.8828 6.33037 75.8323 6.4571 75.834 6.58852C75.8358 6.71994 75.8896 6.84529 75.9837 6.93703L78.8258 9.70797L78.1544 13.6207C78.1386 13.7117 78.1487 13.8053 78.1834 13.8909C78.2182 13.9765 78.2762 14.0506 78.351 14.1049C78.4257 14.1592 78.5142 14.1915 78.6063 14.198C78.6984 14.2046 78.7906 14.1852 78.8722 14.1421L82.3858 12.2948L85.8994 14.1421C85.9953 14.1931 86.1067 14.2102 86.2135 14.1916C86.4827 14.1452 86.6637 13.8899 86.6173 13.6207L85.9458 9.70797L88.7879 6.93703C88.8653 6.86122 88.9163 6.7622 88.9318 6.6539C88.9736 6.38315 88.7848 6.13251 88.5141 6.09229ZM84.7499 9.31809L85.3084 12.5717L82.3858 11.037L79.4633 12.5733L80.0218 9.31964L77.6577 7.01439L80.9253 6.53941L82.3858 3.57972L83.8463 6.53941L87.1139 7.01439L84.7499 9.31809Z" fill="#F77A55"/>
</svg>
