<svg width="91" height="17" viewBox="0 0 91 17" fill="none" xmlns="http://www.w3.org/2000/svg">
<path d="M14.581 6.20654L10.6528 5.63565L8.89675 2.07566C8.84878 1.97819 8.76988 1.89929 8.67241 1.85132C8.42796 1.73065 8.13091 1.83121 8.00868 2.07566L6.25267 5.63565L2.32446 6.20654C2.21616 6.22202 2.11715 6.27307 2.04134 6.35043C1.94969 6.44463 1.89918 6.57136 1.90092 6.70278C1.90266 6.8342 1.95651 6.95955 2.05062 7.05129L4.89273 9.82223L4.22127 13.735C4.20552 13.826 4.21559 13.9196 4.25034 14.0052C4.28509 14.0908 4.34312 14.1649 4.41786 14.2192C4.4926 14.2735 4.58105 14.3057 4.67319 14.3123C4.76532 14.3189 4.85746 14.2995 4.93914 14.2564L8.45271 12.4091L11.9663 14.2564C12.0622 14.3074 12.1736 14.3244 12.2804 14.3059C12.5496 14.2594 12.7306 14.0042 12.6842 13.735L12.0127 9.82223L14.8548 7.05129C14.9322 6.97548 14.9832 6.87646 14.9987 6.76816C15.0405 6.49741 14.8517 6.24677 14.581 6.20654Z" fill="#F77A55"/>
<path d="M33.0641 6.20654L29.1359 5.63565L27.3799 2.07566C27.3319 1.97819 27.253 1.89929 27.1556 1.85132C26.9111 1.73065 26.6141 1.83121 26.4918 2.07566L24.7358 5.63565L20.8076 6.20654C20.6993 6.22202 20.6003 6.27307 20.5245 6.35043C20.4328 6.44463 20.3823 6.57136 20.3841 6.70278C20.3858 6.8342 20.4397 6.95955 20.5338 7.05129L23.3759 9.82223L22.7044 13.735C22.6887 13.826 22.6987 13.9196 22.7335 14.0052C22.7682 14.0908 22.8263 14.1649 22.901 14.2192C22.9758 14.2735 23.0642 14.3057 23.1563 14.3123C23.2485 14.3189 23.3406 14.2995 23.4223 14.2564L26.9359 12.4091L30.4494 14.2564C30.5454 14.3074 30.6568 14.3244 30.7635 14.3059C31.0327 14.2594 31.2137 14.0042 31.1673 13.735L30.4959 9.82223L33.338 7.05129C33.4153 6.97548 33.4664 6.87646 33.4818 6.76816C33.5236 6.49741 33.3349 6.24677 33.0641 6.20654Z" fill="#F77A55"/>
<path d="M51.5475 6.20654L47.6193 5.63565L45.8633 2.07566C45.8153 1.97819 45.7364 1.89929 45.639 1.85132C45.3945 1.73065 45.0975 1.83121 44.9752 2.07566L43.2192 5.63565L39.291 6.20654C39.1827 6.22202 39.0837 6.27307 39.0079 6.35043C38.9162 6.44463 38.8657 6.57136 38.8675 6.70278C38.8692 6.8342 38.9231 6.95955 39.0172 7.05129L41.8593 9.82223L41.1878 13.735C41.1721 13.826 41.1821 13.9196 41.2169 14.0052C41.2516 14.0908 41.3097 14.1649 41.3844 14.2192C41.4592 14.2735 41.5476 14.3057 41.6397 14.3123C41.7319 14.3189 41.824 14.2995 41.9057 14.2564L45.4193 12.4091L48.9328 14.2564C49.0288 14.3074 49.1402 14.3244 49.2469 14.3059C49.5161 14.2594 49.6971 14.0042 49.6507 13.735L48.9793 9.82223L51.8214 7.05129C51.8987 6.97548 51.9498 6.87646 51.9652 6.76816C52.007 6.49741 51.8183 6.24677 51.5475 6.20654Z" fill="#F77A55"/>
<path d="M70.0307 6.20654L66.1025 5.63565L64.3465 2.07566C64.2985 1.97819 64.2196 1.89929 64.1221 1.85132C63.8777 1.73065 63.5806 1.83121 63.4584 2.07566L61.7024 5.63565L57.7742 6.20654C57.6659 6.22202 57.5669 6.27307 57.491 6.35043C57.3994 6.44463 57.3489 6.57136 57.3506 6.70278C57.3524 6.8342 57.4062 6.95955 57.5003 7.05129L60.3424 9.82223L59.671 13.735C59.6552 13.826 59.6653 13.9196 59.7 14.0052C59.7348 14.0908 59.7928 14.1649 59.8676 14.2192C59.9423 14.2735 60.0308 14.3057 60.1229 14.3123C60.215 14.3189 60.3072 14.2995 60.3888 14.2564L63.9024 12.4091L67.416 14.2564C67.5119 14.3074 67.6233 14.3244 67.7301 14.3059C67.9993 14.2594 68.1803 14.0042 68.1339 13.735L67.4624 9.82223L70.3045 7.05129C70.3819 6.97548 70.4329 6.87646 70.4484 6.76816C70.4902 6.49741 70.3014 6.24677 70.0307 6.20654Z" fill="#F77A55"/>
<path d="M88.5141 6.20654L84.5859 5.63565L82.8299 2.07566C82.7819 1.97819 82.703 1.89929 82.6055 1.85132C82.3611 1.73065 82.064 1.83121 81.9418 2.07566L80.1858 5.63565L76.2576 6.20654C76.1493 6.22202 76.0503 6.27307 75.9744 6.35043C75.8828 6.44463 75.8323 6.57136 75.834 6.70278C75.8358 6.8342 75.8896 6.95955 75.9837 7.05129L78.8258 9.82223L78.1544 13.735C78.1386 13.826 78.1487 13.9196 78.1834 14.0052C78.2182 14.0908 78.2762 14.1649 78.351 14.2192C78.4257 14.2735 78.5142 14.3057 78.6063 14.3123C78.6984 14.3189 78.7906 14.2995 78.8722 14.2564L82.3858 12.4091L85.8994 14.2564C85.9953 14.3074 86.1067 14.3244 86.2135 14.3059C86.4827 14.2594 86.6637 14.0042 86.6173 13.735L85.9458 9.82223L88.7879 7.05129C88.8653 6.97548 88.9163 6.87646 88.9318 6.76816C88.9736 6.49741 88.7848 6.24677 88.5141 6.20654Z" fill="#F77A55"/>
</svg>
