<svg width="91" height="16" viewBox="0 0 91 16" fill="none" xmlns="http://www.w3.org/2000/svg">
<path fill-rule="evenodd" clip-rule="evenodd" d="M4.10982 13.7654C4.28409 14.0908 4.62405 14.2942 4.99372 14.2935C5.1495 14.2942 5.30397 14.2578 5.4426 14.1879L8.44744 12.6168C8.45537 12.6122 8.46461 12.6095 8.47385 12.6102L11.4582 14.1681C11.6028 14.246 11.7645 14.2862 11.9282 14.2856C11.9804 14.2856 12.0332 14.2809 12.0847 14.2737C12.622 14.1859 12.989 13.6829 12.9098 13.1449L12.3289 9.83771C12.3256 9.83289 12.3246 9.83264 12.3244 9.83209C12.3243 9.83189 12.3243 9.83164 12.3243 9.8311C12.3243 9.82912 12.3289 9.8245 12.3289 9.8245L14.7516 7.48109C15.1093 7.13585 15.1549 6.57937 14.8572 6.18066C14.6954 5.97206 14.4585 5.83476 14.1971 5.79779L10.8555 5.31591C10.8496 5.31591 10.843 5.30931 10.8364 5.30271L9.34388 2.30578C9.17555 1.96714 8.83097 1.75326 8.45272 1.75128C8.34315 1.75128 8.23357 1.76844 8.12927 1.80409C7.87908 1.88925 7.67247 2.0688 7.55497 2.30578L6.06442 5.29413C6.06442 5.30799 6.05056 5.31393 6.03736 5.31393L2.70377 5.79581C2.4998 5.83014 2.30968 5.92124 2.15588 6.05986C1.96114 6.25063 1.85156 6.5127 1.85156 6.78599C1.85222 7.04541 1.95652 7.29362 2.14201 7.47449L4.58444 9.8245C4.58972 9.82978 4.59171 9.83705 4.59171 9.84431L4.00354 13.1383C3.96856 13.3535 4.00618 13.574 4.10982 13.7654ZM8.43346 2.71966L8.44006 2.71504H8.4526L8.45854 2.72098C8.46448 2.72098 8.46976 2.7223 8.47438 2.72626C8.47834 2.73022 8.48032 2.7355 8.47966 2.74144L9.97153 5.72451C10.1148 6.01826 10.3933 6.2229 10.7168 6.2724L14.0583 6.75825C14.0642 6.75825 14.0702 6.75957 14.0755 6.76221C14.0788 6.76287 14.0814 6.76287 14.0847 6.76221L14.0913 6.76815L14.0847 6.78267L11.6621 9.13203C11.4211 9.35779 11.3135 9.69181 11.3776 10.0159L11.9591 13.304L11.9459 13.3165H11.9321C11.9294 13.3178 11.9268 13.3178 11.9242 13.3165C11.9176 13.3158 11.9109 13.3132 11.905 13.3099H11.8991L8.92854 11.7586C8.78596 11.6847 8.62753 11.6451 8.46646 11.6458C8.30077 11.6458 8.13706 11.6873 7.99052 11.7652L5.00085 13.333C4.99755 13.3337 4.99359 13.3337 4.99029 13.333C4.97643 13.333 4.96455 13.3238 4.96124 13.3106V13.2974L5.54215 10.01C5.59628 9.68851 5.49066 9.36043 5.2583 9.13203L2.81587 6.78861C2.81521 6.77871 2.81653 6.77013 2.82181 6.76155L2.86207 6.74835L6.18246 6.2724C6.50592 6.22224 6.78383 6.01826 6.92773 5.72451L8.42025 2.73418C8.42355 2.72824 8.42752 2.72296 8.43346 2.71966Z" fill="#F77A55"/>
<path fill-rule="evenodd" clip-rule="evenodd" d="M22.593 13.7654C22.7672 14.0908 23.1072 14.2942 23.4769 14.2935C23.6327 14.2942 23.7871 14.2578 23.9257 14.1879L26.9306 12.6168C26.9385 12.6122 26.9478 12.6095 26.957 12.6102L29.9414 14.1681C30.086 14.246 30.2477 14.2862 30.4114 14.2856C30.4635 14.2856 30.5163 14.2809 30.5678 14.2737C31.1052 14.1859 31.4722 13.6829 31.393 13.1449L30.8121 9.83771C30.8087 9.83289 30.8078 9.83264 30.8076 9.83209C30.8075 9.83189 30.8075 9.83164 30.8075 9.8311C30.8075 9.82912 30.8121 9.8245 30.8121 9.8245L33.2347 7.48109C33.5925 7.13585 33.638 6.57937 33.3403 6.18066C33.1786 5.97206 32.9416 5.83476 32.6802 5.79779L29.3387 5.31591C29.3328 5.31591 29.3262 5.30931 29.3196 5.30271L27.827 2.30578C27.6587 1.96714 27.3141 1.75326 26.9359 1.75128C26.8263 1.75128 26.7167 1.76844 26.6124 1.80409C26.3622 1.88925 26.1556 2.0688 26.0381 2.30578L24.5476 5.29413C24.5476 5.30799 24.5337 5.31393 24.5205 5.31393L21.1869 5.79581C20.983 5.83014 20.7928 5.92124 20.639 6.05986C20.4443 6.25063 20.3347 6.5127 20.3347 6.78599C20.3354 7.04541 20.4397 7.29362 20.6252 7.47449L23.0676 9.8245C23.0729 9.82978 23.0749 9.83705 23.0749 9.84431L22.4867 13.1383C22.4517 13.3535 22.4893 13.574 22.593 13.7654ZM26.9166 2.71966L26.9232 2.71504H26.9358L26.9417 2.72098C26.9476 2.72098 26.9529 2.7223 26.9575 2.72626C26.9615 2.73022 26.9635 2.7355 26.9628 2.74144L28.4547 5.72451C28.5979 6.01826 28.8765 6.2229 29.2 6.2724L32.5415 6.75825C32.5474 6.75825 32.5533 6.75957 32.5586 6.76221C32.5619 6.76287 32.5646 6.76287 32.5679 6.76221L32.5745 6.76815L32.5679 6.78267L30.1452 9.13203C29.9043 9.35779 29.7967 9.69181 29.8607 10.0159L30.4423 13.304L30.4291 13.3165H30.4152C30.4126 13.3178 30.4099 13.3178 30.4073 13.3165C30.4007 13.3158 30.3941 13.3132 30.3882 13.3099H30.3822L27.4117 11.7586C27.2691 11.6847 27.1107 11.6451 26.9496 11.6458C26.7839 11.6458 26.6202 11.6873 26.4737 11.7652L23.484 13.333C23.4807 13.3337 23.4767 13.3337 23.4734 13.333C23.4596 13.333 23.4477 13.3238 23.4444 13.3106V13.2974L24.0253 10.01C24.0794 9.68851 23.9738 9.36043 23.7415 9.13203L21.299 6.78861C21.2984 6.77871 21.2997 6.77013 21.305 6.76155L21.3452 6.74835L24.6656 6.2724C24.9891 6.22224 25.267 6.01826 25.4109 5.72451L26.9034 2.73418C26.9067 2.72824 26.9107 2.72296 26.9166 2.71966Z" fill="#F77A55"/>
<path fill-rule="evenodd" clip-rule="evenodd" d="M41.0764 13.7654C41.2506 14.0908 41.5906 14.2942 41.9603 14.2935C42.1161 14.2942 42.2705 14.2578 42.4091 14.1879L45.414 12.6168C45.4219 12.6122 45.4312 12.6095 45.4404 12.6102L48.4248 14.1681C48.5694 14.246 48.7311 14.2862 48.8948 14.2856C48.9469 14.2856 48.9997 14.2809 49.0512 14.2737C49.5886 14.1859 49.9556 13.6829 49.8764 13.1449L49.2955 9.83771C49.2921 9.83289 49.2912 9.83264 49.291 9.83209C49.2909 9.83189 49.2909 9.83164 49.2909 9.8311C49.2909 9.82912 49.2955 9.8245 49.2955 9.8245L51.7181 7.48109C52.0759 7.13585 52.1214 6.57937 51.8237 6.18066C51.662 5.97206 51.425 5.83476 51.1636 5.79779L47.8221 5.31591C47.8162 5.31591 47.8096 5.30931 47.803 5.30271L46.3104 2.30578C46.1421 1.96714 45.7975 1.75326 45.4193 1.75128C45.3097 1.75128 45.2001 1.76844 45.0958 1.80409C44.8456 1.88925 44.639 2.0688 44.5215 2.30578L43.031 5.29413C43.031 5.30799 43.0171 5.31393 43.0039 5.31393L39.6703 5.79581C39.4663 5.83014 39.2762 5.92124 39.1224 6.05986C38.9277 6.25063 38.8181 6.5127 38.8181 6.78599C38.8188 7.04541 38.9231 7.29362 39.1086 7.47449L41.551 9.8245C41.5563 9.82978 41.5583 9.83705 41.5583 9.84431L40.9701 13.1383C40.9351 13.3535 40.9727 13.574 41.0764 13.7654ZM45.4 2.71966L45.4066 2.71504H45.4192L45.4251 2.72098C45.431 2.72098 45.4363 2.7223 45.4409 2.72626C45.4449 2.73022 45.4469 2.7355 45.4462 2.74144L46.9381 5.72451C47.0813 6.01826 47.3599 6.2229 47.6834 6.2724L51.0249 6.75825C51.0308 6.75825 51.0367 6.75957 51.042 6.76221C51.0453 6.76287 51.048 6.76287 51.0513 6.76221L51.0579 6.76815L51.0513 6.78267L48.6286 9.13203C48.3877 9.35779 48.2801 9.69181 48.3441 10.0159L48.9257 13.304L48.9125 13.3165H48.8986C48.896 13.3178 48.8933 13.3178 48.8907 13.3165C48.8841 13.3158 48.8775 13.3132 48.8716 13.3099H48.8656L45.8951 11.7586C45.7525 11.6847 45.5941 11.6451 45.433 11.6458C45.2673 11.6458 45.1036 11.6873 44.9571 11.7652L41.9674 13.333C41.9641 13.3337 41.9601 13.3337 41.9568 13.333C41.943 13.333 41.9311 13.3238 41.9278 13.3106V13.2974L42.5087 10.01C42.5628 9.68851 42.4572 9.36043 42.2248 9.13203L39.7824 6.78861C39.7818 6.77871 39.7831 6.77013 39.7884 6.76155L39.8286 6.74835L43.149 6.2724C43.4725 6.22224 43.7504 6.01826 43.8943 5.72451L45.3868 2.73418C45.3901 2.72824 45.3941 2.72296 45.4 2.71966Z" fill="#F77A55"/>
<path fill-rule="evenodd" clip-rule="evenodd" d="M59.5595 13.7654C59.7338 14.0908 60.0738 14.2942 60.4434 14.2935C60.5992 14.2942 60.7537 14.2578 60.8923 14.1879L63.8972 12.6168C63.9051 12.6122 63.9143 12.6095 63.9236 12.6102L66.9079 14.1681C67.0525 14.246 67.2142 14.2862 67.3779 14.2856C67.4301 14.2856 67.4829 14.2809 67.5344 14.2737C68.0717 14.1859 68.4388 13.6829 68.3595 13.1449L67.7786 9.83771C67.7753 9.83289 67.7744 9.83264 67.7741 9.83209C67.774 9.83189 67.774 9.83164 67.774 9.8311C67.774 9.82912 67.7786 9.8245 67.7786 9.8245L70.2013 7.48109C70.559 7.13585 70.6046 6.57937 70.3069 6.18066C70.1452 5.97206 69.9082 5.83476 69.6468 5.79779L66.3053 5.31591C66.2993 5.31591 66.2927 5.30931 66.2861 5.30271L64.7936 2.30578C64.6253 1.96714 64.2807 1.75326 63.9024 1.75128C63.7929 1.75128 63.6833 1.76844 63.579 1.80409C63.3288 1.88925 63.1222 2.0688 63.0047 2.30578L61.5141 5.29413C61.5141 5.30799 61.5003 5.31393 61.4871 5.31393L58.1535 5.79581C57.9495 5.83014 57.7594 5.92124 57.6056 6.05986C57.4108 6.25063 57.3013 6.5127 57.3013 6.78599C57.3019 7.04541 57.4062 7.29362 57.5917 7.47449L60.0342 9.8245C60.0394 9.82978 60.0414 9.83705 60.0414 9.84431L59.4532 13.1383C59.4183 13.3535 59.4559 13.574 59.5595 13.7654ZM63.8832 2.71966L63.8898 2.71504H63.9023L63.9082 2.72098C63.9142 2.72098 63.9195 2.7223 63.9241 2.72626C63.9281 2.73022 63.93 2.7355 63.9294 2.74144L65.4212 5.72451C65.5645 6.01826 65.843 6.2229 66.1665 6.2724L69.508 6.75825C69.514 6.75825 69.5199 6.75957 69.5252 6.76221C69.5285 6.76287 69.5311 6.76287 69.5344 6.76221L69.541 6.76815L69.5344 6.78267L67.1118 9.13203C66.8708 9.35779 66.7633 9.69181 66.8273 10.0159L67.4088 13.304L67.3956 13.3165H67.3818C67.3791 13.3178 67.3765 13.3178 67.3739 13.3165C67.3673 13.3158 67.3607 13.3132 67.3547 13.3099H67.3488L64.3783 11.7586C64.2357 11.6847 64.0772 11.6451 63.9162 11.6458C63.7505 11.6458 63.5868 11.6873 63.4402 11.7652L60.4506 13.333C60.4473 13.3337 60.4433 13.3337 60.44 13.333C60.4261 13.333 60.4143 13.3238 60.411 13.3106V13.2974L60.9919 10.01C61.046 9.68851 60.9404 9.36043 60.708 9.13203L58.2656 6.78861C58.2649 6.77871 58.2662 6.77013 58.2715 6.76155L58.3118 6.74835L61.6322 6.2724C61.9556 6.22224 62.2335 6.01826 62.3774 5.72451L63.87 2.73418C63.8733 2.72824 63.8772 2.72296 63.8832 2.71966Z" fill="#F77A55"/>
<path d="M88.5141 5.56397L84.5859 4.99307L82.8299 1.43308C82.7819 1.33561 82.703 1.25671 82.6055 1.20875C82.3611 1.08807 82.064 1.18863 81.9418 1.43308L80.1858 4.99307L76.2576 5.56397C76.1493 5.57944 76.0503 5.63049 75.9744 5.70785C75.8828 5.80205 75.8323 5.92878 75.834 6.0602C75.8358 6.19162 75.8896 6.31697 75.9837 6.40871L78.8258 9.17965L78.1544 13.0924C78.1386 13.1834 78.1487 13.277 78.1834 13.3626C78.2182 13.4482 78.2762 13.5223 78.351 13.5766C78.4257 13.6309 78.5142 13.6631 78.6063 13.6697C78.6984 13.6763 78.7906 13.6569 78.8722 13.6138L82.3858 11.7665L85.8994 13.6138C85.9953 13.6648 86.1067 13.6818 86.2135 13.6633C86.4827 13.6169 86.6637 13.3616 86.6173 13.0924L85.9458 9.17965L88.7879 6.40871C88.8653 6.3329 88.9163 6.23388 88.9318 6.12558C88.9736 5.85483 88.7848 5.60419 88.5141 5.56397ZM84.7499 8.78977L85.3084 12.0434L82.3858 10.5086L79.4633 12.045L80.0218 8.79132L77.6577 6.48607L80.9253 6.01109L82.3858 3.0514L83.8463 6.01109L87.1139 6.48607L84.7499 8.78977Z" fill="#F77A55"/>
</svg>
