<svg width="14" height="13" viewBox="0 0 14 13" fill="none" xmlns="http://www.w3.org/2000/svg">
<path d="M12.8305 4.72806L8.90227 4.15716L7.14626 0.597175C7.0983 0.499705 7.01939 0.4208 6.92192 0.372839C6.67747 0.252161 6.38042 0.352726 6.25819 0.597175L4.50218 4.15716L0.573975 4.72806C0.465675 4.74353 0.366658 4.79459 0.290847 4.87194C0.199197 4.96614 0.148694 5.09288 0.150434 5.22429C0.152175 5.35571 0.206017 5.48106 0.30013 5.5728L3.14224 8.34374L2.47078 12.2565C2.45503 12.3475 2.4651 12.4411 2.49985 12.5267C2.5346 12.6123 2.59263 12.6864 2.66737 12.7407C2.74211 12.795 2.83056 12.8272 2.9227 12.8338C3.01484 12.8404 3.10697 12.821 3.18865 12.7779L6.70223 10.9306L10.2158 12.7779C10.3117 12.8289 10.4231 12.8459 10.5299 12.8274C10.7991 12.781 10.9801 12.5257 10.9337 12.2565L10.2622 8.34374L13.1043 5.5728C13.1817 5.49699 13.2327 5.39797 13.2482 5.28967C13.29 5.01892 13.1012 4.76828 12.8305 4.72806V4.72806Z" fill="#F77A55"/>
</svg>
