<svg width="25" height="24" viewBox="0 0 25 24" fill="none" xmlns="http://www.w3.org/2000/svg">
<path fill-rule="evenodd" clip-rule="evenodd" d="M12.6999 2.05906C12.5134 1.98031 12.303 1.98031 12.1165 2.05906L0.866474 6.80906C0.58873 6.92633 0.408203 7.19851 0.408203 7.5C0.408203 7.80149 0.58873 8.07367 0.866474 8.19094L4.6582 9.79189V13.5955C4.17201 13.7216 3.71058 13.9729 3.33101 14.3524C2.75223 14.9312 2.4082 15.7627 2.4082 16.7811V21.2811C2.4082 21.5304 2.53615 21.7681 2.74329 21.9059C2.80241 21.9451 2.8607 21.9787 2.96337 22.0301C3.08696 22.0919 3.26036 22.1683 3.4835 22.2427C3.93082 22.3918 4.5733 22.5312 5.4082 22.5312C6.24307 22.5312 6.88553 22.3919 7.33284 22.2428C7.55596 22.1684 7.72936 22.0921 7.85294 22.0303C7.94977 21.9819 8.00639 21.9487 8.06285 21.9128C8.27434 21.7752 8.4082 21.5344 8.4082 21.2813V16.7813C8.4082 15.7629 8.06419 14.9313 7.48541 14.3525C7.10584 13.9729 6.6444 13.7216 6.1582 13.5955V10.4252L12.1165 12.9409C12.303 13.0197 12.5134 13.0197 12.6999 12.9409L17.9082 10.7419V14.7441C17.8856 14.7696 17.8594 14.798 17.8295 14.8288C17.6679 14.9949 17.3958 15.2338 16.9802 15.4791C16.154 15.9667 14.7256 16.5 12.4082 16.5C11.7962 16.5 11.2466 16.4628 10.7542 16.3992C10.3434 16.3462 9.96742 16.6362 9.9144 17.047C9.86137 17.4578 10.1514 17.8339 10.5622 17.8869C11.1214 17.9591 11.7353 18 12.4082 18C14.9658 18 16.6625 17.4083 17.7425 16.7709C18.28 16.4537 18.6563 16.1301 18.905 15.8744C19.0484 15.7268 19.1896 15.5683 19.2976 15.3921L19.2982 15.3911C19.3701 15.2733 19.4082 15.138 19.4082 15V10.1085L23.9499 8.19094C24.2277 8.07367 24.4082 7.80149 24.4082 7.5C24.4082 7.19851 24.2277 6.92633 23.9499 6.80906L12.6999 2.05906ZM5.40814 15C5.40812 15 5.40815 15 5.40814 15C5.03117 15 4.66366 15.1411 4.39165 15.4131C4.12668 15.6781 3.9082 16.1121 3.9082 16.7811V20.8027C4.2071 20.9079 4.70546 21.0312 5.4082 21.0312C6.11092 21.0312 6.60928 20.908 6.9082 20.8027V16.7813C6.9082 16.1122 6.68972 15.6781 6.42474 15.4132C6.15271 15.1411 5.78512 15 5.40814 15ZM12.4082 11.4359L3.08636 7.5L12.4082 3.56411L21.73 7.5L12.4082 11.4359Z" fill="#24292E"/>
</svg>
