<svg width="31" height="30" viewBox="0 0 31 30" fill="none" xmlns="http://www.w3.org/2000/svg">
<path fill-rule="evenodd" clip-rule="evenodd" d="M27.7556 14.8725C27.7556 21.7173 22.2068 27.2661 15.362 27.2661C8.51711 27.2661 2.96826 21.7173 2.96826 14.8725C2.96826 8.02761 8.51711 2.47876 15.362 2.47876C22.2068 2.47876 27.7556 8.02761 27.7556 14.8725ZM15.8061 11.6283C14.6006 12.1297 12.1914 13.1675 8.57835 14.7416C7.99165 14.9749 7.68432 15.2032 7.65634 15.4264C7.60905 15.8035 8.08139 15.9521 8.72458 16.1543C8.81207 16.1818 8.90272 16.2103 8.99565 16.2405C9.62845 16.4462 10.4797 16.6869 10.9222 16.6964C11.3236 16.7051 11.7716 16.5396 12.2662 16.2C15.642 13.9212 17.3846 12.7695 17.494 12.7446C17.5712 12.7271 17.6781 12.7051 17.7506 12.7695C17.8231 12.8339 17.8159 12.9559 17.8083 12.9886C17.7615 13.1881 15.9074 14.9118 14.9479 15.8038C14.6488 16.0819 14.4366 16.2792 14.3932 16.3242C14.2961 16.4251 14.1971 16.5206 14.1019 16.6123C13.514 17.1791 13.0731 17.6041 14.1263 18.2981C14.6324 18.6316 15.0374 18.9074 15.4414 19.1825C15.8827 19.483 16.3227 19.7827 16.8922 20.156C17.0372 20.2511 17.1758 20.3498 17.3107 20.446C17.8242 20.8121 18.2856 21.141 18.8555 21.0886C19.1867 21.0581 19.5288 20.7467 19.7025 19.8179C20.1131 17.623 20.9201 12.8672 21.1066 10.9075C21.123 10.7358 21.1024 10.516 21.0859 10.4196C21.0694 10.3231 21.0349 10.1857 20.9095 10.0839C20.761 9.96345 20.5318 9.93805 20.4293 9.93976C19.9631 9.94806 19.2479 10.1967 15.8061 11.6283Z" fill="white"/>
</svg>
