<svg width="32" height="33" viewBox="0 0 32 33" fill="none" xmlns="http://www.w3.org/2000/svg">
<path d="M10.6987 13.381C10.784 17.541 12.864 20.037 16.512 20.037H16.7253V17.6584C18.064 17.7917 19.0773 18.773 19.4827 20.037H21.376C21.1818 19.3188 20.8376 18.6499 20.366 18.0744C19.8943 17.4989 19.3061 17.0299 18.64 16.6984C19.2369 16.3349 19.7524 15.8522 20.1543 15.2805C20.5563 14.7088 20.836 14.0604 20.976 13.3757H19.2587C18.8853 14.6984 17.776 15.8984 16.7253 16.0104V13.381H15.0027V17.989C13.936 17.7224 12.592 16.4317 12.5333 13.381H10.6987Z" fill="#0077FF"/>
<path fill-rule="evenodd" clip-rule="evenodd" d="M16 0.511719C24.8366 0.511719 32 7.67516 32 16.5117C32 25.3483 24.8366 32.5117 16 32.5117C7.16344 32.5117 0 25.3483 0 16.5117C0 7.67516 7.16344 0.511719 16 0.511719ZM8 16.1917C8 12.5704 8 10.7624 9.12 9.63172C10.256 8.51172 12.064 8.51172 15.68 8.51172H16.32C19.9413 8.51172 21.7493 8.51172 22.88 9.63172C24 10.7677 24 12.5757 24 16.1917V16.8317C24 20.4531 24 22.2611 22.88 23.3917C21.744 24.5117 19.936 24.5117 16.32 24.5117H15.68C12.0587 24.5117 10.2507 24.5117 9.12 23.3917C8 22.2557 8 20.4477 8 16.8317V16.1917Z" fill="#0077FF"/>
</svg>
