<svg width="31" height="30" viewBox="0 0 31 30" fill="none" xmlns="http://www.w3.org/2000/svg">
<path fill-rule="evenodd" clip-rule="evenodd" d="M4.95875 4.21388C3.22363 5.96552 3.22363 8.76649 3.22363 14.3767V15.3682C3.22363 20.9702 3.22363 23.7711 4.95875 25.531C6.71039 27.2661 9.51137 27.2661 15.1216 27.2661H16.1131C21.715 27.2661 24.516 27.2661 26.2759 25.531C28.011 23.7794 28.011 20.9784 28.011 15.3682V14.3767C28.011 8.77476 28.011 5.97378 26.2759 4.21388C24.5243 2.47876 21.7233 2.47876 16.1131 2.47876H15.1216C9.51963 2.47876 6.71865 2.47876 4.95875 4.21388ZM7.40444 10.0224C7.53664 16.4671 10.759 20.3339 16.4105 20.3339H16.741V16.6489C18.8149 16.8554 20.3848 18.3757 21.0127 20.3339H23.9459C23.645 19.2212 23.1117 18.1849 22.3811 17.2934C21.6505 16.4018 20.7392 15.6753 19.7072 15.1616C20.6319 14.5985 21.4306 13.8508 22.0533 12.9651C22.6759 12.0794 23.1093 11.0748 23.3262 10.0141H20.6657C20.0873 12.0632 18.3687 13.9223 16.741 14.0958V10.0224H14.0722V17.1612C12.4198 16.748 10.3376 14.7485 10.2467 10.0224H7.40444Z" fill="white"/>
</svg>
