<svg width="24" height="25" viewBox="0 0 24 25" fill="none" xmlns="http://www.w3.org/2000/svg">
<path fill-rule="evenodd" clip-rule="evenodd" d="M1.25 11.4455C1.25 9.3744 2.92893 7.69546 5 7.69546H18.7167C20.2078 7.69546 21.4167 8.9043 21.4167 10.3955V11.5979C22.1603 11.641 22.75 12.2577 22.75 13.0121V16.8788C22.75 17.6332 22.1603 18.2499 21.4167 18.2931V19.4955C21.4167 20.9866 20.2078 22.1955 18.7167 22.1955H5C2.92893 22.1955 1.25 20.5165 1.25 18.4455V11.4455ZM5 9.19546C3.75736 9.19546 2.75 10.2028 2.75 11.4455V18.4455C2.75 19.6881 3.75736 20.6955 5 20.6955H18.7167C19.3794 20.6955 19.9167 20.1582 19.9167 19.4955V18.2121C19.9167 17.4577 20.5064 16.841 21.25 16.7979V13.0931C20.5064 13.0499 19.9167 12.4332 19.9167 11.6788V10.3955C19.9167 9.73272 19.3794 9.19546 18.7167 9.19546H5Z" fill="#14142B"/>
<path fill-rule="evenodd" clip-rule="evenodd" d="M15.25 13.4455C15.25 12.479 16.0335 11.6955 17 11.6955H21C21.9665 11.6955 22.75 12.479 22.75 13.4455V16.4455C22.75 17.412 21.9665 18.1955 21 18.1955H17C16.0335 18.1955 15.25 17.412 15.25 16.4455V13.4455ZM17 13.1955C16.8619 13.1955 16.75 13.3074 16.75 13.4455V16.4455C16.75 16.5835 16.8619 16.6955 17 16.6955H21C21.1381 16.6955 21.25 16.5835 21.25 16.4455V13.4455C21.25 13.3074 21.1381 13.1955 21 13.1955H17Z" fill="#14142B"/>
<path fill-rule="evenodd" clip-rule="evenodd" d="M13.8446 4.22679C13.7762 4.10134 13.6167 4.05867 13.4948 4.13318L7.66557 7.69546H15.7366L13.8446 4.22679ZM12.7126 2.85326C13.5661 2.33166 14.6824 2.63036 15.1614 3.50851L17.5778 7.93844C17.8867 8.50486 17.4767 9.19546 16.8315 9.19546H5.35541C4.49696 9.19546 4.17966 8.06782 4.91218 7.62017L12.7126 2.85326Z" fill="#14142B"/>
<path fill-rule="evenodd" clip-rule="evenodd" d="M9 18.1955C8.58579 18.1955 8.25 17.8597 8.25 17.4455L8.25 12.4455C8.25 12.0312 8.58579 11.6955 9 11.6955C9.41421 11.6955 9.75 12.0312 9.75 12.4455L9.75 17.4455C9.75 17.8597 9.41421 18.1955 9 18.1955Z" fill="#14142B"/>
</svg>
