<svg width="32" height="33" viewBox="0 0 32 33" fill="none" xmlns="http://www.w3.org/2000/svg">
<path d="M0 16.5117C0 25.3483 7.16344 32.5117 16 32.5117C24.8366 32.5117 32 25.3483 32 16.5117C32 7.67516 24.8366 0.511719 16 0.511719C7.16344 0.511719 0 7.67516 0 16.5117Z" fill="#FF0000"/>
<path d="M23.6 12.6116C23.4 11.9116 22.9 11.4116 22.2 11.2116C21 10.9116 15.9 10.9116 15.9 10.9116C15.9 10.9116 10.9 10.9116 9.60001 11.2116C8.90001 11.4116 8.4 11.9116 8.2 12.6116C8 13.9116 8 16.5116 8 16.5116C8 16.5116 8 19.1116 8.3 20.4116C8.5 21.1116 9 21.6116 9.7 21.8116C10.9 22.1116 16 22.1116 16 22.1116C16 22.1116 21 22.1116 22.3 21.8116C23 21.6116 23.5 21.1116 23.7 20.4116C24 19.1116 24 16.5116 24 16.5116C24 16.5116 24 13.9116 23.6 12.6116ZM14.4 18.9116V14.1116L18.6 16.5116L14.4 18.9116Z" fill="white"/>
</svg>
