<svg width="30" height="30" viewBox="0 0 30 30" fill="none" xmlns="http://www.w3.org/2000/svg">
<path fill-rule="evenodd" clip-rule="evenodd" d="M25.5246 5.52774C26.6985 5.84197 27.6211 6.76446 27.9352 7.93833C28.5031 10.0639 28.5054 14.5012 28.5054 14.5012C28.5054 14.5012 28.5054 18.9386 27.9352 21.0642C27.6211 22.238 26.6985 23.1605 25.5246 23.4747C23.3992 24.0448 14.8723 24.0448 14.8723 24.0448C14.8723 24.0448 6.34548 24.0448 4.21994 23.4747C3.04608 23.1605 2.12359 22.238 1.80936 21.0642C1.23926 18.9386 1.23926 14.5012 1.23926 14.5012C1.23926 14.5012 1.23926 10.0639 1.80936 7.93833C2.12359 6.76446 3.04608 5.84197 4.21994 5.52774C6.34548 4.95764 14.8723 4.95764 14.8723 4.95764C14.8723 4.95764 23.3992 4.95764 25.5246 5.52774ZM19.2267 14.5016L12.1431 18.591V10.4121L19.2267 14.5016Z" fill="white"/>
</svg>
